<svg xmlns="http://www.w3.org/2000/svg" xmlns:xlink="http://www.w3.org/1999/xlink" fill="none" version="1.1" width="153" height="51" viewBox="0 0 153 51"><g style="mix-blend-mode:passthrough"><g style="mix-blend-mode:passthrough"><path d="M5.41935,2C2.42633,2,0,4.371,0,7.29577L0,43.7042C0,46.629,2.42633,49,5.41935,49L40.6587,49C41.3899,49,42,48.4136,42,47.6824L42,47.6651C42,46.9339,41.4072,46.3521,40.676,46.3521L7.1129,46.3521C4.68107,46.3521,2.70968,44.7567,2.70968,42.3803C2.70968,40.0039,4.68107,38.4085,7.1129,38.4085L40,38.4085C41.1045,38.4085,42,37.513,42,36.4085L42,7.29577C42,4.371,39.5737,2,36.5806,2L5.41935,2ZM3.38696,15.1732L16.9353,15.1732L16.9353,23.1829L16.9353,27.7505L30.4836,27.7505L30.4836,38.4084L33.1933,38.4084L33.1933,27.6835C35.8093,27.3277,38.0094,25.585,39.0991,23.1829L19.645,23.1829L19.645,15.1062C22.2609,14.7505,24.4611,13.0078,25.5507,10.60563L3.38696,10.60563L3.38696,15.1732ZM5.41919,18.5493L14.9031,18.5493L14.9031,22.5211L5.41919,22.5211L5.41919,18.5493ZM18.9675,31.1268L28.4514,31.1268L28.4514,35.0986L18.9675,35.0986L18.9675,31.1268ZM5.41943,42.3803Q5.41943,42.3152,5.42581,42.2505Q5.43218,42.1858,5.44487,42.122Q5.45756,42.0582,5.47644,41.996Q5.49532,41.9337,5.52021,41.8736Q5.5451,41.8135,5.57576,41.7562Q5.60642,41.6988,5.64256,41.6447Q5.67869,41.5907,5.71995,41.5404Q5.76122,41.4901,5.80721,41.4441Q5.8532,41.3981,5.90348,41.3569Q5.95375,41.3156,6.00783,41.2795Q6.06191,41.2433,6.11927,41.2127Q6.17664,41.182,6.23673,41.1571Q6.29682,41.1322,6.35906,41.1133Q6.4213,41.0945,6.48509,41.0818Q6.54888,41.0691,6.61361,41.0627Q6.67834,41.0563,6.74338,41.0563L40.6761,41.0563Q40.7412,41.0563,40.8059,41.0627Q40.8706,41.0691,40.9344,41.0818Q40.9982,41.0945,41.0604,41.1133Q41.1227,41.1322,41.1828,41.1571Q41.2429,41.182,41.3002,41.2127Q41.3576,41.2433,41.4117,41.2795Q41.4657,41.3156,41.516,41.3569Q41.5663,41.3981,41.6123,41.4441Q41.6583,41.4901,41.6995,41.5404Q41.7408,41.5907,41.7769,41.6447Q41.8131,41.6988,41.8437,41.7562Q41.8744,41.8135,41.8993,41.8736Q41.9242,41.9337,41.9431,41.996Q41.9619,42.0582,41.9746,42.122Q41.9873,42.1858,41.9937,42.2505Q42.0001,42.3152,42.0001,42.3803Q42.0001,42.4453,41.9937,42.51Q41.9873,42.5748,41.9746,42.6386Q41.9619,42.7024,41.9431,42.7646Q41.9242,42.8268,41.8993,42.8869Q41.8744,42.947,41.8437,43.0044Q41.8131,43.0617,41.7769,43.1158Q41.7408,43.1699,41.6995,43.2202Q41.6583,43.2705,41.6123,43.3164Q41.5663,43.3624,41.516,43.4037Q41.4657,43.445,41.4117,43.4811Q41.3576,43.5172,41.3002,43.5479Q41.2429,43.5785,41.1828,43.6034Q41.1227,43.6283,41.0604,43.6472Q40.9982,43.6661,40.9344,43.6788Q40.8706,43.6915,40.8059,43.6978Q40.7412,43.7042,40.6761,43.7042L6.74338,43.7042Q6.67834,43.7042,6.61361,43.6978Q6.54888,43.6915,6.48509,43.6788Q6.4213,43.6661,6.35906,43.6472Q6.29682,43.6283,6.23672,43.6034Q6.17664,43.5785,6.11927,43.5479Q6.06191,43.5172,6.00783,43.4811Q5.95375,43.445,5.90348,43.4037Q5.8532,43.3624,5.80721,43.3164Q5.76122,43.2705,5.71996,43.2202Q5.67869,43.1699,5.64256,43.1158Q5.60642,43.0617,5.57576,43.0044Q5.5451,42.947,5.52021,42.8869Q5.49532,42.8268,5.47644,42.7646Q5.45756,42.7024,5.44487,42.6386Q5.43218,42.5748,5.42581,42.51Q5.41943,42.4453,5.41943,42.3803Z" fill-rule="evenodd" fill="#FFFFFF" fill-opacity="1"/></g><g style="mix-blend-mode:passthrough"><g style="mix-blend-mode:passthrough"><path d="M63.53126103515625,16.082Q62.74026103515625,17.7578,61.31056103515625,18.666Q59.88092103515625,19.5742,58.02350103515625,19.5742Q56.06061103515625,19.5742,54.53131103515625,18.6133Q53.00201103515625,17.6523,52.14654103515625,15.9355Q51.29107703515625,14.2129,51.29107703515625,12.0156Q51.29107703515625,9.85352,52.15240103515625,8.16602Q53.01959103515625,6.47266,54.58404103515625,5.5293Q56.15436103515625,4.58008,58.18756103515625,4.58008Q60.05670103515625,4.58008,61.38676103515625,5.51172Q62.72276103515625,6.4375,63.49616103515625,8.07227L60.70706103515625,9.31445Q60.32623103515625,8.43555,59.62311103515625,7.98438Q58.92584103515625,7.5332,58.00592103515625,7.5332Q56.99811103515625,7.5332,56.20709103515625,8.10156Q55.41608103515625,8.66992,54.97076103515625,9.69531Q54.53131103515625,10.7207,54.53131103515625,12.0156Q54.53131103515625,13.3457,54.97076103515625,14.4004Q55.41608103515625,15.4551,56.20709103515625,16.041Q56.99811103515625,16.6211,58.00592103515625,16.6211Q58.86725103515625,16.6211,59.55865103515625,16.1641Q60.25592103515625,15.707,60.74226103515625,14.8398L63.53126103515625,16.082ZM75.77316103515625,19.5742Q73.73996103515626,19.5742,72.23416103515625,18.6602Q70.73416103515625,17.7402,69.91966103515625,16.0586Q69.11106103515625,14.3711,69.11106103515625,12.0859Q69.11106103515625,9.80078,69.91966103515625,8.11328Q70.73416103515625,6.41992,72.23416103515625,5.5Q73.73996103515626,4.58008,75.77316103515625,4.58008Q77.80636103515624,4.58008,79.30056103515625,5.5Q80.79466103515625,6.41992,81.60326103515625,8.11328Q82.41186103515625,9.80078,82.41186103515625,12.0859Q82.41186103515625,14.3711,81.60326103515625,16.0586Q80.79466103515625,17.7402,79.30056103515625,18.6602Q77.80636103515624,19.5742,75.77316103515625,19.5742ZM75.77316103515625,16.6211Q77.35526103515625,16.6211,78.26926103515625,15.4023Q79.18916103515625,14.1777,79.18916103515625,12.0859Q79.18916103515625,10,78.26926103515625,8.76953Q77.35526103515625,7.5332,75.77316103515625,7.5332Q74.18526103515624,7.5332,73.25956103515625,8.76953Q72.33376103515624,10,72.33376103515624,12.0859Q72.33376103515624,14.1777,73.25956103515625,15.4023Q74.18526103515624,16.6211,75.77316103515625,16.6211ZM96.58736103515625,19.3223L93.97406103515624,14.2832L91.97596103515625,14.2832L91.97596103515625,19.3223L88.82956103515625,19.3223L88.82956103515625,4.83203L93.86856103515625,4.83203Q95.64986103515625,4.83203,96.92716103515625,5.41211Q98.20456103515625,5.98633,98.87836103515625,7.04688Q99.55806103515624,8.10742,99.55806103515624,9.54883Q99.55806103515624,10.9902,98.91936103515624,12.0508Q98.28066103515624,13.1113,97.07366103515625,13.6914L100.27876103515625,19.3223L96.58736103515625,19.3223ZM91.97596103515625,7.69727L91.97596103515625,11.4062L93.41736103515625,11.4062Q94.82366103515625,11.4062,95.57956103515625,10.9316Q96.33536103515624,10.4512,96.33536103515624,9.54883Q96.33536103515624,8.65234,95.57956103515625,8.17773Q94.82366103515625,7.69727,93.41736103515625,7.69727L91.97596103515625,7.69727ZM111.13776103515625,4.83203Q112.86626103515624,4.83203,114.14366103515624,5.43555Q115.42096103515625,6.03906,116.10066103515625,7.16406Q116.78626103515624,8.28906,116.78626103515624,9.80078Q116.78626103515624,11.3125,116.11826103515625,12.4316Q115.45616103515626,13.5449,114.21986103515624,14.1484Q112.98936103515625,14.752,111.31356103515625,14.752L109.04596103515625,14.752L109.04596103515625,19.3223L105.89956103515625,19.3223L105.89956103515625,4.83203L111.13776103515625,4.83203ZM110.66906103515625,11.8926Q112.01666103515625,11.8926,112.79016103515625,11.3359Q113.56356103515625,10.7734,113.56356103515625,9.80078Q113.56356103515625,8.82812,112.79016103515625,8.26562Q112.01666103515625,7.69727,110.66906103515625,7.69727L109.04596103515625,7.69727L109.04596103515625,11.8926L110.66906103515625,11.8926ZM128.72926103515624,16.6211Q129.93626103515624,16.6211,130.63356103515625,15.8066Q131.33666103515625,14.9863,131.33666103515625,13.5801L131.33666103515625,4.83203L134.48906103515625,4.83203L134.48906103515625,13.709Q134.48906103515625,15.5078,133.78596103515625,16.8438Q133.08276103515624,18.1738,131.77616103515624,18.877Q130.47536103515625,19.5742,128.72926103515624,19.5742Q126.96556103515626,19.5742,125.66486103515625,18.877Q124.36986103515625,18.1738,123.66676103515626,16.8496Q122.96956103515625,15.5254,122.96956103515625,13.709L122.96956103515625,4.83203L126.11596103515625,4.83203L126.11596103515625,13.5098Q126.11596103515625,14.9512,126.81916103515626,15.7891Q127.52226103515625,16.6211,128.72926103515624,16.6211ZM145.98676103515623,19.5742Q144.00626103515626,19.5742,142.52976103515624,18.5957Q141.05316103515625,17.6113,140.31486103515624,15.9941L143.05126103515624,14.7168Q143.43206103515627,15.6895,144.20556103515625,16.1934Q144.97896103515626,16.6973,146.00436103515625,16.6973Q147.06486103515624,16.6973,147.69186103515625,16.3047Q148.32466103515625,15.9062,148.32466103515625,15.2734Q148.32466103515625,14.8223,148.09026103515623,14.5293Q147.86176103515623,14.2305,147.28166103515625,13.9785Q146.70746103515626,13.7266,145.61176103515623,13.4219Q144.17036103515625,13.0059,143.21526103515623,12.5957Q142.26026103515625,12.1797,141.52776103515623,11.3066Q140.80126103515624,10.4336,140.80126103515624,8.99219Q140.80126103515624,7.73242,141.51026103515625,6.72461Q142.22506103515624,5.7168,143.45556103515625,5.14844Q144.69186103515625,4.58008,146.18596103515625,4.58008Q149.94776103515625,4.58008,151.60606103515624,8.00195L148.90476103515624,9.31445Q148.43596103515625,8.3418,147.75626103515626,7.90234Q147.08246103515626,7.46289,146.15086103515625,7.46289Q145.24846103515625,7.46289,144.63326103515624,7.86133Q144.02386103515624,8.25391,144.02386103515624,8.82812Q144.02386103515624,9.31445,144.27586103515625,9.61328Q144.52776103515623,9.91211,145.09616103515626,10.1582Q145.66456103515625,10.3984,146.77776103515623,10.7031Q148.20166103515623,11.0957,149.15666103515625,11.5059Q150.11176103515623,11.9102,150.82706103515625,12.7832Q151.54706103515625,13.6562,151.54706103515625,15.0918Q151.54706103515625,16.4453,150.83806103515624,17.4648Q150.12936103515625,18.4785,148.86956103515627,19.0234Q147.60986103515626,19.5742,145.98676103515623,19.5742Z" fill="#FFFFFF" fill-opacity="1"/></g><g style="mix-blend-mode:passthrough"><path d="M67.20906103515625,42.8887L65.31646103515625,43.082L65.31646103515625,47.3301L62.74416103515625,47.3301L62.74416103515625,43.351600000000005L57.23639103515625,43.9316L57.08990103515625,41.9863L56.85553103515625,42.3086L55.59576103515625,41.3008L55.59576103515625,47.3125L53.16998103515625,47.3125L53.16998103515625,41.8809Q52.41412103515625,43.2988,51.45904103515625,44.7227L50.75592003515625,41.7168Q51.20709103515625,41.1602,51.78131103515625,40.1348Q52.35553103515625,39.1035,52.85944103515625,37.9375L50.97271703515625,37.9375L50.97271703515625,35.48828L53.16998103515625,35.48828L53.16998103515625,34.22852Q52.35553103515625,34.36914,51.44147103515625,34.49805L51.20709103515625,32.24805Q52.46686103515625,32.11914,54.24811103515625,31.77344Q56.02936103515625,31.42188,57.35944103515625,31.04102L57.81061103515625,33.25586Q56.91412103515625,33.52539,55.59576103515625,33.77734L55.59576103515625,35.48828L57.50592103515625,35.48828L57.50592103515625,37.9375L55.59576103515625,37.9375L55.59576103515625,38.6172Q56.71490103515625,39.3379,58.19147103515625,40.5098L57.54108103515625,41.3711L62.74416103515625,40.832L62.74416103515625,30.95312L65.31646103515625,30.95312L65.31646103515625,40.5801L67.02736103515625,40.4043L67.20906103515625,42.8887ZM59.60944103515625,31.86719Q60.86916103515625,32.89844,62.74416103515625,34.51562L61.16216103515625,36.39062Q60.31256103515625,35.59375,58.11529103515625,33.63672L59.60944103515625,31.86719ZM60.61726103515625,40.6914L58.69537103515625,38.9805Q58.36725103515625,38.6758,58.08014103515625,38.4355Q57.79303103515625,38.1895,57.57623103515625,37.9902L59.10553103515625,36.11523Q61.32036103515625,37.9375,62.22276103515625,38.7637L60.61726103515625,40.6914ZM76.49596103515626,34.87891Q75.55846103515626,36.56641,74.26346103515625,38.1895L71.96076103515625,36.58398Q73.09166103515625,35.28906,73.95296103515625,33.75977Q74.82016103515625,32.23047,75.28886103515624,30.68359L78.09556103515625,31.05859L77.66776103515625,32.33594L87.81626103515626,32.33594L87.81626103515626,34.89648L86.43346103515626,38.1895L83.98416103515625,37.1992L84.95686103515625,34.87891L76.49596103515626,34.87891ZM79.14436103515625,35.54102L81.89826103515625,35.54102L81.89826103515625,44.886700000000005Q81.89826103515625,46.164100000000005,81.23026103515625,46.685500000000005Q80.56236103515624,47.207,78.98026103515625,47.207L76.64236103515626,47.207L76.07986103515626,44.4531L78.13656103515625,44.4531Q78.59946103515625,44.4531,78.80456103515625,44.3828Q79.01546103515625,44.3066,79.07986103515626,44.136700000000005Q79.14436103515625,43.9668,79.14436103515625,43.585899999999995L79.14436103515625,35.54102ZM78.15416103515625,38.834Q77.41586103515625,40.457,76.30846103515626,42.373Q75.20096103515625,44.289100000000005,74.21076103515625,45.6602L71.94316103515625,44.0547Q72.96856103515626,42.7773,73.92956103515625,41.1602Q74.89626103515624,39.5371,75.68736103515624,37.7559L78.15416103515625,38.834ZM84.77526103515625,37.8086Q84.95686103515625,38.1133,86.45096103515624,40.5977Q86.80846103515626,41.1953,87.48226103515626,42.332Q88.16196103515625,43.462900000000005,88.57206103515625,44.1836L86.07016103515625,45.4785Q84.74006103515626,42.8301,82.47246103515624,39.0684L84.77526103515625,37.8086ZM109.57776103515624,36.80078L109.57776103515624,38.8164L93.39996103515625,38.8164L93.39996103515625,36.80078L96.06016103515626,36.80078Q95.63236103515625,36.2793,94.56596103515625,35.18359L95.66756103515624,34.14062L93.90386103515624,34.14062L93.90386103515624,32.14258L97.43126103515624,32.14258L96.69296103515626,30.91797L99.37656103515624,30.37305Q100.03866103515625,31.52734,100.36676103515626,32.14258L102.79256103515624,32.14258Q103.37266103515626,31.07617,103.65976103515625,30.35547L106.30236103515625,30.78906Q106.10896103515626,31.24023,105.64026103515624,32.14258L109.09136103515624,32.14258L109.09136103515624,34.14062L107.16956103515625,34.14062L108.42926103515626,35.08984L108.10706103515625,35.4707Q107.36876103515624,36.34961,106.93516103515626,36.80078L109.57776103515624,36.80078ZM98.34526103515626,34.14062L96.52886103515624,34.14062L98.02306103515625,35.72266L96.89216103515625,36.80078L98.34526103515626,36.80078L98.34526103515626,34.14062ZM100.75936103515625,36.80078L102.20076103515625,36.80078L102.20076103515625,34.14062L100.75936103515625,34.14062L100.75936103515625,36.80078ZM105.99766103515626,36.80078L104.90196103515625,35.88672Q105.83356103515625,34.98438,106.46636103515624,34.14062L104.66756103515624,34.14062L104.66756103515624,36.80078L105.99766103515626,36.80078ZM97.55426103515626,47.3652L95.01716103515625,47.3652L95.01716103515625,39.4844L107.94296103515626,39.4844L107.94296103515626,47.3652L105.42346103515625,47.3652L105.42346103515625,46.773399999999995L97.55426103515626,46.773399999999995L97.55426103515626,47.3652ZM105.42346103515625,42.3262L105.42346103515625,41.3945L97.55426103515626,41.3945L97.55426103515626,42.3262L105.42346103515625,42.3262ZM97.55426103515626,43.949200000000005L97.55426103515626,44.863299999999995L105.42346103515625,44.863299999999995L105.42346103515625,43.949200000000005L97.55426103515626,43.949200000000005ZM117.12436103515626,30.63086L117.46416103515625,31.09375Q118.79426103515625,32.82227,119.28056103515625,33.56055L117.24736103515625,34.9668Q116.87236103515625,34.36914,116.26886103515625,33.54297Q115.66536103515625,32.7168,115.14386103515625,32.03125L117.12436103515626,30.63086ZM119.83726103515625,31.29297L130.19076103515624,31.29297L130.19076103515624,44.8281Q130.19076103515624,45.7832,129.95636103515625,46.310500000000005Q129.72206103515623,46.8438,129.16536103515625,47.0781Q128.60876103515625,47.3125,127.60096103515625,47.3125L125.30986103515625,47.3125L124.84116103515625,45.1387L126.68096103515624,45.1387Q127.30796103515625,45.1387,127.48956103515626,44.9219Q127.67126103515625,44.7051,127.67126103515625,44.1074L127.67126103515625,33.6543L119.83726103515625,33.6543L119.83726103515625,31.29297ZM119.47986103515625,37.0879L119.47986103515625,34.83789L127.00326103515626,34.83789L127.00326103515626,37.0879L119.47986103515625,37.0879ZM114.58136103515625,36.13867L118.30796103515625,36.13867L118.30796103515625,42.7422L119.31576103515626,41.8047L119.67906103515625,44.6348L117.12436103515626,46.9551L115.55406103515625,45.2969Q115.78846103515625,44.9922,115.84116103515625,44.6582Q115.89976103515625,44.324200000000005,115.89976103515625,43.6211L115.89976103515625,38.6406L114.58136103515625,38.6406L114.58136103515625,36.13867ZM119.94856103515625,44.7578L119.94856103515625,38.2773L126.44666103515625,38.2773L126.44666103515625,44.7578L119.94856103515625,44.7578ZM124.23176103515625,40.457L122.19856103515625,40.457L122.19856103515625,42.6367L124.23176103515625,42.6367L124.23176103515625,40.457ZM151.89906103515625,41.1426L151.89906103515625,43.4805L147.43466103515624,43.4805Q148.65926103515625,44.037099999999995,150.25906103515626,44.810500000000005L151.78806103515626,45.5312L150.69206103515626,47.675799999999995Q147.38196103515625,45.912099999999995,145.03816103515624,44.939499999999995L145.72376103515626,43.4805L142.10846103515627,43.4805L142.86436103515626,44.8457Q141.52846103515625,45.6191,139.95226103515625,46.4219Q138.38196103515625,47.224599999999995,136.99326103515625,47.8164L136.03816103515624,45.5664Q138.45226103515625,44.6523,140.52056103515625,43.4805L136.03816103515624,43.4805L136.03816103515624,41.1426L137.22766103515625,41.1426L137.22766103515625,32.31836L140.95416103515623,32.31836L140.95416103515623,30.58984L143.27456103515624,30.58984L143.27456103515624,32.31836L144.71596103515625,32.31836L144.71596103515625,30.58984L147.00106103515625,30.58984L147.00106103515625,32.31836L150.76306103515626,32.31836L150.76306103515626,41.1426L151.89906103515625,41.1426ZM140.95416103515623,36.7832L140.95416103515623,34.71484L139.58896103515625,34.71484L139.58896103515625,36.7832L140.95416103515623,36.7832ZM144.71596103515625,36.7832L144.71596103515625,34.71484L143.27456103515624,34.71484L143.27456103515624,36.7832L144.71596103515625,36.7832ZM148.40736103515627,36.7832L148.40736103515627,34.71484L147.00106103515625,34.71484L147.00106103515625,36.7832L148.40736103515627,36.7832ZM140.95416103515623,38.9277L139.58896103515625,38.9277L139.58896103515625,41.1426L140.95416103515623,41.1426L140.95416103515623,38.9277ZM143.27456103515624,41.1426L144.71596103515625,41.1426L144.71596103515625,38.9277L143.27456103515624,38.9277L143.27456103515624,41.1426ZM148.40736103515627,38.9277L147.00106103515625,38.9277L147.00106103515625,41.1426L148.40736103515627,41.1426L148.40736103515627,38.9277Z" fill="#FFFFFF" fill-opacity="1"/></g></g></g></svg>