<svg xmlns="http://www.w3.org/2000/svg" xmlns:xlink="http://www.w3.org/1999/xlink" fill="none" version="1.1" width="384" height="64" viewBox="0 0 384 64"><g style="mix-blend-mode:passthrough"><g style="mix-blend-mode:passthrough"><path d="M5.41935,8.5C2.42633,8.5,0,10.871,0,13.795770000000001L0,50.2042C0,53.129,2.42633,55.5,5.41935,55.5L40.6587,55.5C41.3899,55.5,42,54.9136,42,54.1824L42,54.1651C42,53.4339,41.4072,52.8521,40.676,52.8521L7.1129,52.8521C4.68107,52.8521,2.70968,51.2567,2.70968,48.8803C2.70968,46.5039,4.68107,44.9085,7.1129,44.9085L40,44.9085C41.1045,44.9085,42,44.013,42,42.9085L42,13.795770000000001C42,10.871,39.5737,8.5,36.5806,8.5L5.41935,8.5ZM3.38696,21.673099999999998L16.9353,21.673099999999998L16.9353,29.6828L16.9353,34.2504L30.4836,34.2504L30.4836,44.9084L33.1933,44.9084L33.1933,34.1834C35.8093,33.8277,38.0094,32.085,39.0991,29.6828L19.645,29.6828L19.645,21.606099999999998C22.2609,21.2504,24.4611,19.5077,25.5507,17.10557L3.38696,17.10557L3.38696,21.673099999999998ZM5.41919,25.0492L14.9031,25.0492L14.9031,29.021L5.41919,29.021L5.41919,25.0492ZM18.9675,37.6267L28.4514,37.6267L28.4514,41.5985L18.9675,41.5985L18.9675,37.6267ZM5.41943,48.8803Q5.41943,48.8153,5.42581,48.7506Q5.43218,48.6858,5.44487,48.6221Q5.45756,48.5583,5.47644,48.496Q5.49532,48.4338,5.52021,48.3737Q5.5451,48.3136,5.57576,48.2562Q5.60642,48.1989,5.64256,48.1448Q5.67869,48.0907,5.71995,48.0404Q5.76122,47.9902,5.80721,47.9442Q5.8532,47.8982,5.90348,47.8569Q5.95375,47.8157,6.00783,47.7795Q6.06191,47.7434,6.11927,47.7127Q6.17664,47.6821,6.23673,47.6572Q6.29682,47.6323,6.35906,47.6134Q6.4213,47.5945,6.48509,47.5818Q6.54888,47.5691,6.61361,47.5628Q6.67834,47.5564,6.74338,47.5564L40.6761,47.5564Q40.7412,47.5564,40.8059,47.5628Q40.8706,47.5691,40.9344,47.5818Q40.9982,47.5945,41.0604,47.6134Q41.1227,47.6323,41.1828,47.6572Q41.2429,47.6821,41.3002,47.7127Q41.3576,47.7434,41.4117,47.7795Q41.4657,47.8157,41.516,47.8569Q41.5663,47.8982,41.6123,47.9442Q41.6583,47.9902,41.6995,48.0404Q41.7408,48.0907,41.7769,48.1448Q41.8131,48.1989,41.8437,48.2562Q41.8744,48.3136,41.8993,48.3737Q41.9242,48.4338,41.9431,48.496Q41.9619,48.5583,41.9746,48.6221Q41.9873,48.6858,41.9937,48.7506Q42.0001,48.8153,42.0001,48.8803Q42.0001,48.9454,41.9937,49.0101Q41.9873,49.0748,41.9746,49.1386Q41.9619,49.2024,41.9431,49.2647Q41.9242,49.3269,41.8993,49.387Q41.8744,49.4471,41.8437,49.5044Q41.8131,49.5618,41.7769,49.6159Q41.7408,49.67,41.6995,49.7202Q41.6583,49.7705,41.6123,49.8165Q41.5663,49.8625,41.516,49.9038Q41.4657,49.945,41.4117,49.9812Q41.3576,50.0173,41.3002,50.048Q41.2429,50.0786,41.1828,50.1035Q41.1227,50.1284,41.0604,50.1473Q40.9982,50.1662,40.9344,50.1788Q40.8706,50.1915,40.8059,50.1979Q40.7412,50.2043,40.6761,50.2043L6.74338,50.2043Q6.67834,50.2043,6.61361,50.1979Q6.54888,50.1915,6.48509,50.1788Q6.4213,50.1662,6.35906,50.1473Q6.29682,50.1284,6.23672,50.1035Q6.17664,50.0786,6.11927,50.048Q6.06191,50.0173,6.00783,49.9812Q5.95375,49.945,5.90348,49.9038Q5.8532,49.8625,5.80721,49.8165Q5.76122,49.7705,5.71996,49.7202Q5.67869,49.67,5.64256,49.6159Q5.60642,49.5618,5.57576,49.5044Q5.5451,49.4471,5.52021,49.387Q5.49532,49.3269,5.47644,49.2647Q5.45756,49.2024,5.44487,49.1386Q5.43218,49.0748,5.42581,49.0101Q5.41943,48.9454,5.41943,48.8803Z" fill-rule="evenodd" fill="#175EAD" fill-opacity="1"/></g><g style="mix-blend-mode:passthrough"><path d="M86.93756103515625,7.92969L93.82036103515625,7.92969L93.82036103515625,11.6016L78.10162103515626,11.6016L78.10162103515626,14.625Q78.10162103515626,18.0312,77.92194103515625,20.1094Q77.74225103515624,22.1875,77.17975103515624,23.9844Q76.61725103515624,25.7812,75.46100103515624,27.9219L72.05475103515624,25.375Q73.06256103515625,23.7188,73.51568103515625,22.3516Q73.97662103515626,20.9844,74.10944103515625,19.3984Q74.24225103515624,17.8125,74.24225103515624,14.9609L74.24225103515624,7.92969L82.13286103515625,7.92969L81.39066103515626,5.76562L85.97666103515625,5.28906L86.93756103515625,7.92969ZM116.86726103515625,18.8984L109.61726103515625,18.8984L109.61726103515625,24.4609Q109.61726103515625,26.3594,108.64066103515626,27.0781Q107.67196103515624,27.7969,105.60946103515624,27.7969L102.96886103515625,27.7969L102.34386103515625,24.1797L104.69536103515625,24.1797Q105.25006103515625,24.1797,105.48446103515624,24.1094Q105.72666103515624,24.0312,105.79696103515624,23.8672Q105.87506103515625,23.6953,105.87506103515625,23.2891L105.87506103515625,18.8984L97.59386103515625,18.8984L97.59386103515625,15.4844Q98.60166103515625,14.2656,100.25786103515625,11.5078L96.39066103515626,11.5078L96.39066103515626,8.14062L102.10166103515625,8.14062Q102.85166103515625,6.72656,103.35166103515624,5.50781L107.33596103515626,6.00781Q107.04696103515624,6.75,106.32816103515626,8.14062L117.58596103515626,8.14062L117.58596103515626,11.5078L104.47666103515624,11.5078Q102.99226103515625,14.0938,101.98446103515624,15.5391L105.87506103515625,15.5391L105.87506103515625,12.3672L109.61726103515625,12.3672L109.61726103515625,15.5391L116.86726103515625,15.5391L116.86726103515625,18.8984ZM103.90626103515625,21.4375Q100.85946103515624,24.9922,98.17196103515624,27.2266L95.76566103515626,24.3672Q97.15626103515625,23.2656,98.54696103515624,21.8906Q99.94536103515625,20.5078,101.11726103515625,19.0859L103.90626103515625,21.4375ZM112.68756103515625,19.2578Q115.13286103515625,21.5156,118.13286103515625,24.5156L115.54696103515624,27.2266Q114.39066103515626,25.9297,112.89846103515626,24.4297Q111.41416103515624,22.9297,110.19536103515625,21.8203L112.68756103515625,19.2578ZM127.80476103515625,5.9375Q127.35166103515624,7.61719,126.92196103515624,8.86719L131.93756103515625,8.86719L131.93756103515625,12.3203Q131.17196103515624,17.1406,128.96886103515624,20.7812Q126.77346103515626,24.4141,122.84386103515625,27.9219L120.29696103515624,25.0391Q122.71886103515625,22.9766,124.28916103515624,21.0312Q125.86726103515625,19.0859,126.84386103515625,17.0156Q127.82816103515626,14.9375,128.47666103515624,12.3203L125.60166103515624,12.3203L124.90626103515625,13.8281L127.03916103515624,15.25L125.02346103515626,18.4141Q124.57036103515625,18.0312,123.12506103515625,17Q122.55476103515625,17.9375,121.90626103515625,18.7969L119.60166103515624,15.9219Q122.78916103515624,11.1719,124.18756103515625,5.40625L127.80476103515625,5.9375ZM140.14066103515626,19.1562L136.39846103515623,15.9922L136.39846103515623,27.8516L132.79696103515624,27.8516L132.79696103515624,5.55469L136.39846103515623,5.55469L136.39846103515623,11.6016Q141.07816103515626,15.2031,142.13286103515625,16.0859L140.14066103515626,19.1562ZM147.96886103515624,11.8438Q147.46096103515623,11.0938,146.38286103515625,9.72656Q145.30476103515625,8.35938,144.60946103515624,7.54688L147.25006103515625,5.47656L150.60946103515624,9.5625L147.96886103515624,11.8438ZM163.95316103515626,10.6641L163.83596103515623,15.0547L165.77346103515623,15.0547L165.77346103515623,18.125L150.41416103515627,18.125L150.41416103515627,15.0547L153.34386103515624,15.0547L153.60946103515624,13.6172L151.52346103515623,13.6172L151.52346103515623,10.6641L154.13286103515625,10.6641L154.35166103515627,9.4375L151.03916103515627,9.4375L151.03916103515627,6.39062L164.78916103515627,6.39062L164.78916103515627,9.4375L157.73446103515624,9.4375L157.52346103515623,10.6641L163.95316103515626,10.6641ZM149.40626103515626,21.6328L150.77346103515623,20.5078L151.52346103515623,24.0547L147.46096103515623,27.5859L145.61726103515625,24.8203Q145.95316103515626,24.4844,146.02346103515623,24.125Q146.09386103515624,23.7656,146.09386103515624,23.0938L146.09386103515624,15.9219L144.25006103515625,15.9219L144.25006103515625,12.75L149.40626103515626,12.75L149.40626103515626,21.6328ZM160.39846103515623,13.6172L156.99226103515625,13.6172L156.72666103515627,15.0547L160.35166103515627,15.0547L160.39846103515623,13.6172ZM155.04696103515624,27.8516L151.73446103515624,27.8516L151.73446103515624,19.0156L164.67196103515624,19.0156L164.67196103515624,27.8516L161.21886103515624,27.8516L161.21886103515624,26.7891L155.04696103515624,26.7891L155.04696103515624,27.8516ZM161.21886103515624,23.7891L161.21886103515624,21.9688L155.04696103515624,21.9688L155.04696103515624,23.7891L161.21886103515624,23.7891ZM175.80506103515626,5.9375Q175.35206103515625,7.61719,174.92206103515625,8.86719L179.93806103515624,8.86719L179.93806103515624,12.3203Q179.17206103515625,17.1406,176.96906103515624,20.7812Q174.77306103515625,24.4141,170.84386103515624,27.9219L168.29696103515624,25.0391Q170.71886103515624,22.9766,172.28906103515624,21.0312Q173.86706103515627,19.0859,174.84406103515624,17.0156Q175.82806103515625,14.9375,176.47706103515625,12.3203L173.60206103515625,12.3203L172.90606103515626,13.8281L175.03906103515624,15.25L173.02306103515625,18.4141Q172.57006103515624,18.0312,171.12506103515625,17Q170.55476103515625,17.9375,169.90626103515626,18.7969L167.60166103515627,15.9219Q170.78916103515627,11.1719,172.18806103515624,5.40625L175.80506103515626,5.9375ZM188.14106103515627,19.1562L184.39806103515625,15.9922L184.39806103515625,27.8516L180.79706103515625,27.8516L180.79706103515625,5.55469L184.39806103515625,5.55469L184.39806103515625,11.6016Q189.07806103515625,15.2031,190.13306103515623,16.0859L188.14106103515627,19.1562ZM194.04706103515625,16.0156L192.92206103515625,13.4688Q193.21106103515626,13.2109,193.28906103515624,12.9453Q193.37506103515625,12.6797,193.37506103515625,12.3906L193.37506103515625,6.63281Q195.34406103515624,6.51562,197.53906103515624,6.17969Q199.73406103515626,5.84375,201.72706103515625,5.38281L202.68806103515624,8.3125Q198.89806103515625,9.20312,196.59406103515624,9.53906L196.59406103515624,12.1484L198.92206103515625,11.3125Q198.48406103515623,10.4453,198.39106103515627,10.3047L201.22706103515625,9.125L203.04706103515625,12.6562Q203.55506103515626,12.0547,203.82806103515625,11.5078Q204.10206103515625,10.9531,204.27306103515625,10.2109Q204.39106103515624,9.82031,204.41406103515624,9.41406L202.95306103515625,9.41406L202.95306103515625,6.46094L213.29706103515625,6.46094L212.86706103515624,12.4141Q212.74206103515624,13.7344,212.38306103515626,14.4062Q212.02306103515625,15.0781,211.28906103515624,15.3359Q210.56206103515626,15.5859,209.17206103515625,15.5859L207.18006103515626,15.5859L206.69506103515624,12.9219Q206.35906103515626,13.6406,205.78106103515626,14.375Q205.21106103515626,15.1016,204.27306103515625,16.0156L202.73406103515626,14.4766L200.98406103515626,15.5625Q200.93806103515624,15.4141,200.24206103515624,13.9297L194.04706103515625,16.0156ZM207.58606103515626,9.41406Q207.51606103515624,10.1562,207.36706103515624,10.8281Q207.14806103515625,11.8906,206.81206103515626,12.6328L208.35206103515625,12.6328Q208.88306103515626,12.6328,209.13306103515626,12.5391Q209.38306103515626,12.4375,209.45306103515625,12.0781Q209.57806103515625,11.4297,209.64806103515625,10.4219L209.74206103515624,9.41406L207.58606103515626,9.41406ZM211.32806103515625,16.3047L211.32806103515625,22.9297L207.72706103515625,22.9297L207.72706103515625,19.1094L198.27306103515625,19.1094L198.27306103515625,23L194.76606103515627,23L194.76606103515627,16.3047L211.32806103515625,16.3047ZM204.75006103515625,19.8281Q204.63306103515626,20.7891,204.39106103515624,21.7734L213.29706103515625,24.9922L211.88306103515626,28.3047Q209.55506103515626,27.2031,203.09406103515624,24.5859Q202.13306103515626,25.6641,200.05506103515626,26.4531Q197.98406103515623,27.25,193.95306103515625,28.0391L192.72706103515625,24.9219Q195.48406103515623,24.4609,197.07806103515625,24.0703Q198.68006103515626,23.6719,199.57806103515625,23.1562Q200.47706103515625,22.6406,200.76606103515624,21.8516Q201.07806103515625,21.0781,201.25006103515625,19.8281L204.75006103515625,19.8281ZM228.89806103515625,14.6016Q229.80506103515626,17.9609,231.90606103515626,20.2891Q234.00806103515626,22.6172,237.89806103515625,24.4609L235.68806103515624,27.8203Q229.61706103515624,24.7734,227.17206103515625,19.7578Q224.62506103515625,24.4141,218.33606103515626,28.0625L216.07806103515625,24.5859Q219.60906103515626,22.8828,221.98406103515626,20.3281Q224.35906103515626,17.7656,224.93806103515624,14.6016L217.03906103515624,14.6016L217.03906103515624,11.0234L225.10206103515625,11.0234L225.10206103515625,5.84375L228.94506103515624,5.84375L228.94506103515624,11.0234L237.12506103515625,11.0234L237.12506103515625,14.6016L228.89806103515625,14.6016ZM244.06206103515626,12.6328L244.06206103515626,14.7656L240.65606103515626,14.7656L240.65606103515626,9.32031L243.72706103515625,9.32031L242.26606103515624,6.875L245.28906103515624,5.35938L247.37506103515625,8.53125L245.96106103515626,9.32031L249.58606103515626,9.32031L248.14106103515624,6.53906L251.17206103515625,5.14062L252.96906103515624,8.28906L250.88306103515626,9.32031L253.75806103515626,9.32031Q255.51606103515624,6.77344,256.2580610351563,5.26562L259.71106103515626,6.27344L257.7420610351562,9.32031L261.34406103515624,9.32031L261.34406103515624,14.7656L258.0780610351562,14.7656L258.0780610351562,12.6328L244.06206103515626,12.6328ZM261.4840610351563,18.8984L261.4840610351563,22.3047L253.28106103515626,22.3047L253.28106103515626,24.6094Q253.28106103515626,25.9062,252.89806103515625,26.6094Q252.51606103515624,27.3203,251.65606103515626,27.6094Q250.80506103515626,27.8984,249.27306103515625,27.8984L246.29706103515625,27.8984L245.57806103515625,24.5391L248.50806103515626,24.5391Q249.05506103515626,24.5391,249.28106103515626,24.4766Q249.51606103515624,24.4141,249.58606103515626,24.2266Q249.65606103515626,24.0312,249.65606103515626,23.5547L249.65606103515626,22.3047L240.48406103515626,22.3047L240.48406103515626,18.8984L249.65606103515626,18.8984L249.65606103515626,18.25L252.22706103515625,17.0234L244.57006103515624,17.0234L244.57006103515624,13.8047L257.6020610351562,13.8047L257.6020610351562,17L254.43006103515626,18.8984L261.4840610351563,18.8984ZM285.2970610351563,10.3516L276.7270610351562,10.3516L276.7270610351562,11.4297L284.8670610351562,11.4297L284.8670610351562,24.5156Q284.8670610351562,25.8594,284.5780610351562,26.5391Q284.28906103515624,27.2266,283.62506103515625,27.5Q282.96906103515624,27.7734,281.7420610351562,27.7734L278.6020610351562,27.7734L277.9530610351562,24.6797L280.44506103515624,24.6797Q280.9770610351562,24.6797,281.15606103515626,24.6328Q281.33606103515626,24.5859,281.3830610351563,24.4219Q281.43006103515626,24.25,281.43006103515626,23.7656L281.43006103515626,14.5547L277.9530610351562,14.5547L279.7030610351562,15.4844Q279.03106103515626,16.4922,278.78906103515624,16.8281L280.37506103515625,16.8281L280.37506103515625,19.5938L276.75006103515625,19.5938L276.75006103515625,20.4531L280.66406103515624,20.4531L280.66406103515624,23.1953L276.75006103515625,23.1953L276.75006103515625,26.6719L273.25006103515625,26.6719L273.25006103515625,23.1953L268.93006103515626,23.1953L268.93006103515626,20.4531L273.25006103515625,20.4531L273.25006103515625,19.5938L269.2420610351562,19.5938L269.2420610351562,16.8281L270.9220610351563,16.8281Q270.43806103515624,16.0625,270.0080610351563,15.6094L271.78106103515626,14.5547L268.46906103515624,14.5547L268.46906103515624,27.7734L265.03906103515624,27.7734L265.03906103515624,11.4297L273.0780610351562,11.4297L273.0780610351562,10.3516L264.43806103515624,10.3516L264.43806103515624,7.13281L273.0780610351562,7.13281L273.0780610351562,5.14062L276.7270610351562,5.14062L276.7270610351562,7.13281L285.2970610351563,7.13281L285.2970610351563,10.3516ZM275.1720610351563,16.8281Q276.1020610351562,15.5156,276.7030610351562,14.5547L272.8670610351562,14.5547Q273.65606103515626,15.5156,274.21106103515626,16.2578L273.46106103515626,16.8281L275.1720610351563,16.8281ZM288.8980610351563,27.8516L288.8980610351563,6.10156L309.2030610351562,6.10156L309.2030610351562,27.8516L305.5080610351563,27.8516L305.5080610351563,26.8906L292.4220610351563,26.8906L292.4220610351563,27.8516L288.8980610351563,27.8516ZM292.3520610351562,9.32031L292.3980610351563,23.6719L305.5080610351563,23.6719L305.5080610351563,9.32031L292.3520610351562,9.32031ZM303.43806103515624,19.8047L304.9530610351562,19.8047L304.9530610351562,22.8047L292.9770610351562,22.8047L292.9770610351562,19.8047L297.03106103515626,19.8047L297.03106103515626,17.4766L293.71906103515624,17.4766L293.71906103515624,14.5078L297.03106103515626,14.5078L297.03106103515626,13.1094L293.43006103515626,13.1094L293.43006103515626,10.1562L304.68806103515624,10.1562L304.68806103515624,13.1094L300.43806103515624,13.1094L300.43806103515624,14.5078L304.3980610351563,14.5078L304.3980610351563,17.4766L303.2270610351562,17.4766Q303.34406103515624,17.6484,303.6330610351563,17.9844L304.37506103515625,18.9922L303.43806103515624,19.8047ZM300.43806103515624,17.4766L300.43806103515624,19.8047L301.9770610351562,19.8047Q301.3980610351563,18.9688,300.87506103515625,18.3203L301.90606103515626,17.4766L300.43806103515624,17.4766ZM333.7730610351563,10.0859L328.83606103515626,10.0859L328.23406103515623,12.125L332.76606103515627,12.125L332.76606103515627,24.4141Q332.76606103515627,25.7578,332.43006103515626,26.4922Q332.09406103515624,27.2266,331.33606103515626,27.5234Q330.58606103515626,27.8203,329.24206103515627,27.8203L326.40606103515626,27.8203L326.00006103515625,25.3984L328.30506103515626,25.3984Q329.0470610351563,25.3984,329.28906103515624,25.1406Q329.53106103515626,24.875,329.53106103515626,24.2266L329.53106103515626,18.9922L328.28106103515626,20.1172L327.56206103515626,19.4688L327.56206103515626,24.8984L318.43806103515624,24.8984L318.43806103515624,19.4922L317.6020610351562,20.1406L316.5470610351563,19.0391L316.5470610351563,27.8203L313.30506103515626,27.8203L313.30506103515626,12.125L317.5780610351562,12.125L317.2420610351562,10.0859L312.2270610351562,10.0859L312.2270610351562,7.03906L321.2970610351563,7.03906L320.7660610351562,5.50781L324.8980610351563,5.24219Q325.18806103515624,5.98438,325.57006103515624,7.03906L333.7730610351563,7.03906L333.7730610351563,10.0859ZM320.93806103515624,12.125L324.7030610351562,12.125L325.3280610351562,10.0859L320.53106103515626,10.0859L320.93806103515624,12.125ZM316.5470610351563,17.6016Q318.2970610351563,16.2578,319.57006103515624,14.9844L316.5470610351563,14.9844L316.5470610351563,17.6016ZM325.90606103515626,18.0078L323.69506103515624,16.0391L324.9920610351562,14.9844L321.1480610351563,14.9844L322.4220610351563,16.0156Q321.7730610351563,16.6875,320.2420610351562,18.0078L325.90606103515626,18.0078ZM326.69506103515624,14.9844L329.53106103515626,17.4531L329.53106103515626,14.9844L326.69506103515624,14.9844ZM321.2270610351562,22.1875L324.7730610351563,22.1875L324.7730610351563,20.625L321.2270610351562,20.625L321.2270610351562,22.1875ZM340.06206103515626,12.6328L340.06206103515626,14.7656L336.65606103515626,14.7656L336.65606103515626,9.32031L339.7270610351562,9.32031L338.26606103515627,6.875L341.28906103515624,5.35938L343.37506103515625,8.53125L341.96106103515626,9.32031L345.58606103515626,9.32031L344.14106103515627,6.53906L347.1720610351563,5.14062L348.96906103515624,8.28906L346.88306103515623,9.32031L349.75806103515623,9.32031Q351.51606103515627,6.77344,352.25806103515623,5.26562L355.71106103515626,6.27344L353.74206103515627,9.32031L357.34406103515624,9.32031L357.34406103515624,14.7656L354.0780610351562,14.7656L354.0780610351562,12.6328L340.06206103515626,12.6328ZM357.48406103515623,18.8984L357.48406103515623,22.3047L349.28106103515626,22.3047L349.28106103515626,24.6094Q349.28106103515626,25.9062,348.8980610351563,26.6094Q348.51606103515627,27.3203,347.65606103515626,27.6094Q346.80506103515626,27.8984,345.2730610351563,27.8984L342.2970610351563,27.8984L341.5780610351562,24.5391L344.50806103515623,24.5391Q345.05506103515626,24.5391,345.28106103515626,24.4766Q345.51606103515627,24.4141,345.58606103515626,24.2266Q345.65606103515626,24.0312,345.65606103515626,23.5547L345.65606103515626,22.3047L336.48406103515623,22.3047L336.48406103515623,18.8984L345.65606103515626,18.8984L345.65606103515626,18.25L348.2270610351562,17.0234L340.57006103515624,17.0234L340.57006103515624,13.8047L353.6020610351562,13.8047L353.6020610351562,17L350.43006103515626,18.8984L357.48406103515623,18.8984ZM378.56206103515626,10.6875L371.4530610351562,10.6875L371.4530610351562,12.3203L368.53106103515626,12.3203L368.53106103515626,7.46875L373.15606103515626,7.46875L372.7970610351563,5.625L376.46906103515624,5.16406L376.9530610351562,7.46875L381.63306103515623,7.46875L381.63306103515623,12.3203L378.56206103515626,12.3203L378.56206103515626,10.6875ZM368.28906103515624,19.9297Q368.28906103515624,21.6797,367.9530610351562,22.6172Q367.61706103515627,23.5547,366.8980610351563,23.9297Q366.18006103515626,24.2969,364.90606103515626,24.2969L364.23406103515623,24.2969L363.7030610351562,21.6094L363.7030610351562,27.7969L360.75006103515625,27.7969L360.75006103515625,6.34375L368.11706103515627,6.34375L368.11706103515627,9.65625L366.60906103515623,14.1172Q367.46906103515624,15.7031,367.87506103515625,17.0859Q368.28906103515624,18.4609,368.28906103515624,19.9297ZM363.99206103515627,20.9844Q364.5230610351563,20.9844,364.7730610351563,20.8203Q365.0230610351563,20.6484,365.13306103515623,20.2188Q365.24206103515627,19.7812,365.24206103515627,18.9453Q365.24206103515627,18.0781,364.91406103515624,17.0859Q364.59406103515624,16.0859,363.8980610351563,14.7422L365.1720610351563,9.70312L363.7030610351562,9.70312L363.7030610351562,20.9844L363.99206103515627,20.9844ZM380.31206103515626,15.5859L369.7730610351563,15.5859L369.7730610351563,12.6797L380.31206103515626,12.6797L380.31206103515626,15.5859ZM381.96906103515624,21.9219L381.87506103515625,24.75Q381.82006103515624,26.3594,381.1720610351563,26.9688Q380.53106103515626,27.5859,379.21106103515626,27.5859L377.6720610351563,27.5859Q376.61706103515627,27.5859,376.01606103515627,27.3281Q375.41406103515624,27.0781,375.1480610351563,26.4688Q374.89106103515627,25.8594,374.89106103515627,24.75L374.89106103515627,19.8281L373.68806103515624,19.8281L373.68806103515624,19.9531Q373.68806103515624,21.9688,373.2030610351562,23.3281Q372.7270610351562,24.6797,371.74206103515627,25.75Q370.75806103515623,26.8125,369.00806103515623,28.0156L366.7030610351562,25.5469Q368.19506103515624,24.6797,368.93806103515624,23.9609Q369.68006103515626,23.2422,370.00006103515625,22.3203Q370.3280610351562,21.3906,370.3980610351563,19.8281L368.6020610351562,19.8281L368.6020610351562,16.6641L381.7270610351562,16.6641L381.7270610351562,19.8281L378.0780610351562,19.8281L378.0780610351562,23.6953Q378.0780610351562,24.1016,378.18806103515624,24.2344Q378.2970610351563,24.3672,378.65606103515626,24.3672L378.87506103515625,24.3672Q379.21106103515626,24.3672,379.30506103515626,24.2109Q379.3980610351563,24.0547,379.4220610351563,23.5781L379.46906103515624,21.3906L381.96906103515624,21.9219ZM93.96886103515625,52.9688L91.54696103515624,53.2344L91.54696103515624,58.7969L87.92196103515624,58.7969L87.92196103515624,53.5938L80.64850103515624,54.3594L80.45318103515625,51.7656L80.14068103515625,52.2031L78.56256103515625,50.9531L78.56256103515625,58.75L75.12506103515625,58.75L75.12506103515625,51.7656Q74.04694103515625,53.7578,72.96881103515625,55.3672L71.98443603515625,51.1172Q72.53912103515626,50.4219,73.26568103515625,49.1406Q74.00006103515625,47.8594,74.64850103515624,46.3672L72.25006103515625,46.3672L72.25006103515625,42.9141L75.12506103515625,42.9141L75.12506103515625,41.4219Q74.14068103515625,41.5938,72.92194103515625,41.7812L72.58600103515624,38.6172Q74.28912103515626,38.4453,76.64850103515624,37.9688Q79.01568103515625,37.4844,80.84381103515625,36.9844L81.46096103515625,40.1016Q80.24225103515624,40.4609,78.56256103515625,40.7969L78.56256103515625,42.9141L81.00786103515625,42.9141L81.00786103515625,46.3672L78.56256103515625,46.3672L78.56256103515625,47.2109Q80.00006103515625,48.1172,81.99226103515625,49.6562L81.20316103515626,50.7578L87.92196103515624,50.0625L87.92196103515624,41.7578L85.82816103515626,44.2344Q84.70316103515626,43.1797,81.77346103515625,40.5625L83.89066103515626,38.0859Q84.92196103515624,38.9297,87.92196103515624,41.5234L87.92196103515624,36.9609L91.54696103515624,36.9609L91.54696103515624,49.6797L93.70316103515626,49.4609L93.96886103515625,52.9688ZM85.08596103515625,49.9688Q83.64846103515625,48.6484,81.05476103515625,46.3906L83.21886103515625,43.75Q86.19536103515625,46.2031,87.34386103515625,47.2578L85.08596103515625,49.9688ZM102.05476103515625,42.2188Q100.85946103515624,44.4219,99.14846103515625,46.5859L95.89066103515626,44.3281Q97.35166103515625,42.625,98.44536103515625,40.6328Q99.53916103515625,38.6406,100.15626103515625,36.5781L104.14066103515626,37.0547Q103.85946103515624,38.0156,103.61726103515625,38.6641L117.14846103515626,38.6641L117.14846103515626,42.2656L115.42196103515624,46.6094L111.96886103515625,45.2188L113.11726103515625,42.2188L102.05476103515625,42.2188ZM105.43756103515625,43.0547L109.32816103515626,43.0547L109.32816103515626,55.4844Q109.32816103515626,57.2188,108.41416103515624,57.9219Q107.50786103515625,58.6328,105.34386103515625,58.6328L102.17976103515625,58.6328L101.38286103515625,54.7656L104.14066103515626,54.7656Q104.74226103515625,54.7656,105.00786103515625,54.6719Q105.27346103515626,54.5781,105.35166103515624,54.3594Q105.43756103515625,54.1406,105.43756103515625,53.6641L105.43756103515625,43.0547ZM104.33596103515626,47.4688Q103.35166103515624,49.6328,101.85166103515625,52.2031Q100.35166103515625,54.7656,99.05476103515625,56.5703L95.89066103515626,54.3125Q98.67196103515624,50.8047,100.82816103515626,45.9609L104.33596103515626,47.4688ZM113.17196103515624,46.0312Q113.35946103515624,46.3672,115.15626103515625,49.3906Q117.17976103515625,52.7031,118.18756103515625,54.5078L114.63286103515625,56.3281Q113.24226103515625,53.4219,109.92976103515625,47.7812L113.17196103515624,46.0312ZM141.85166103515627,44.6406L141.85166103515627,47.4688L120.17976103515625,47.4688L120.17976103515625,44.6406L123.56256103515625,44.6406Q123.00786103515625,43.9922,121.71096103515626,42.625L123.17976103515625,41.2344L120.85166103515624,41.2344L120.85166103515624,38.4453L125.40626103515625,38.4453Q124.92976103515625,37.5625,124.52346103515626,36.8438L128.33596103515626,36.1406L128.60166103515624,36.6016Q129.32036103515625,37.9453,129.56256103515625,38.4453L132.67976103515625,38.4453Q133.46886103515624,36.8672,133.75786103515625,36.0938L137.53126103515626,36.6719Q137.28916103515627,37.2969,136.68756103515625,38.4453L141.20316103515626,38.4453L141.20316103515626,41.2344L138.63286103515625,41.2344L140.33596103515623,42.5312Q139.08596103515623,43.9922,138.48446103515624,44.6406L141.85166103515627,44.6406ZM126.70316103515626,41.2344L124.49226103515625,41.2344L126.39066103515626,43.2266L124.90626103515625,44.6406L126.70316103515626,44.6406L126.70316103515626,41.2344ZM130.10946103515624,44.6406L131.89066103515626,44.6406L131.89066103515626,41.2344L130.10946103515624,41.2344L130.10946103515624,44.6406ZM136.97666103515627,44.6406L135.56256103515625,43.4375Q136.57036103515625,42.4766,137.55476103515625,41.2344L135.34386103515624,41.2344L135.34386103515624,44.6406L136.97666103515627,44.6406ZM125.81256103515625,58.8516L122.24226103515625,58.8516L122.24226103515625,48.2422L139.75786103515625,48.2422L139.75786103515625,58.8516L136.18756103515625,58.8516L136.18756103515625,58.0781L125.81256103515625,58.0781L125.81256103515625,58.8516ZM136.18756103515625,52.0547L136.18756103515625,50.9062L125.81256103515625,50.9062L125.81256103515625,52.0547L136.18756103515625,52.0547ZM125.81256103515625,54.2891L125.81256103515625,55.4141L136.18756103515625,55.4141L136.18756103515625,54.2891L125.81256103515625,54.2891ZM144.85166103515627,58.8516L144.85166103515627,37.1797L165.12506103515625,37.1797L165.12506103515625,58.8516L161.42976103515625,58.8516L161.42976103515625,57.7656L148.54696103515624,57.7656L148.54696103515624,58.8516L144.85166103515627,58.8516ZM148.54696103515624,40.2734L148.54696103515624,54.7891L161.42976103515625,54.7891L161.42976103515625,40.2734L148.54696103515624,40.2734ZM160.97666103515627,42.6016L160.97666103515627,45.5312L159.36726103515625,45.5312L159.36726103515625,51.6016Q159.36726103515625,52.7031,159.00786103515625,53.2656Q158.64846103515623,53.8281,157.85166103515627,54.0234Q157.06256103515625,54.2188,155.60166103515627,54.2188L153.89846103515623,54.2188L153.22666103515627,51.4297L154.97666103515627,51.4297Q155.50786103515625,51.4297,155.71886103515624,51.375Q155.93756103515625,51.3125,155.99226103515625,51.125Q156.05476103515625,50.9297,156.05476103515625,50.4219L156.05476103515625,48Q153.85166103515627,50.6172,150.46096103515623,52.9922L148.64066103515626,50.2344Q152.02346103515623,48.0938,154.13286103515625,45.5312L149.19536103515625,45.5312L149.19536103515625,42.6016L156.05476103515625,42.6016L156.05476103515625,40.7734L159.36726103515625,40.7734L159.36726103515625,42.6016L160.97666103515627,42.6016ZM187.80506103515626,59.1562Q185.98406103515623,57.2656,184.69506103515624,55.3125Q183.41406103515624,53.3516,182.57806103515625,51.1719Q180.96906103515624,55.3906,177.27306103515625,59.0859L174.82006103515624,56.0391Q176.91406103515624,54.0703,178.06206103515626,52.0312Q179.21906103515624,49.9922,179.73406103515623,47.1641Q180.25006103515625,44.3281,180.25006103515625,39.9375L180.25006103515625,36.8438L183.96906103515624,36.8438L183.96906103515624,40.5859Q183.96906103515624,41.9531,183.94506103515624,42.625Q184.23406103515623,45.6719,184.93006103515626,47.8828Q185.62506103515625,50.0859,186.88306103515623,51.9453Q188.14106103515627,53.8047,190.28106103515626,55.8984L187.80506103515626,59.1562ZM177.70306103515625,49.9688Q177.70306103515625,52.2031,176.75006103515625,53.1172Q175.80506103515626,54.0234,173.64806103515625,54.0234L172.78106103515626,54.0234L172.15606103515626,50.7812L173.19506103515624,50.7812Q173.93806103515624,50.7812,174.22706103515625,50.4375Q174.51606103515627,50.0859,174.51606103515627,49.3672Q174.51606103515627,48.6016,174.03106103515626,47.7891Q173.55506103515626,46.9688,172.35206103515625,45.6953L174.25006103515625,40.9453L172.13306103515623,40.9453L172.13306103515623,58.6562L169.03916103515627,58.6562L169.03916103515627,37.5391L177.58606103515626,37.5391L177.58606103515626,40.9453L175.71106103515626,45.1406Q176.78906103515624,46.6562,177.24206103515627,47.6875Q177.70306103515625,48.7188,177.70306103515625,49.9688Z" fill="#175EAD" fill-opacity="1"/></g></g></svg>