<svg xmlns="http://www.w3.org/2000/svg" xmlns:xlink="http://www.w3.org/1999/xlink" fill="none" version="1.1" width="480" height="316" viewBox="0 0 480 316"><defs><mask id="master_svg0_83_0082"><g style="mix-blend-mode:passthrough"><rect x="0" y="0" width="480" height="316" rx="0" fill="#FFFFFF" fill-opacity="1"/></g></mask></defs><g style="mix-blend-mode:passthrough" mask="url(#master_svg0_83_0082)"><g style="mix-blend-mode:passthrough" transform="matrix(0.08679970353841782,-0.9962257146835327,0.9962257146835327,0.08679970353841782,-534.3074852433638,728.1099077465151)"><g><path d="M130.00042724609375,655.49609375L149.69972724609374,668.94229375C169.39892724609376,681.88579375,208.79752724609375,709.5320937500001,248.19642724609375,715.81539375C287.59442724609374,722.09859375,326.99342724609374,709.5320937500001,366.3914272460937,689.04869375C405.79042724609377,669.31929375,445.18842724609374,641.67289375,484.58742724609374,668.94229375C523.9854272460938,695.70889375,563.3844272460938,776.13509375,602.7824272460937,796.24109375C642.1814272460938,816.34709375,681.5794272460937,776.13509375,720.9784272460937,749.36799375C760.3764272460937,722.09859375,799.7754272460937,709.5320937500001,819.4744272460938,702.36919375L839.1744272460937,695.70889375L839.1744272460937,977.19909375L819.4744272460938,977.19909375C799.7754272460937,977.19909375,760.3764272460937,977.19909375,720.9784272460937,977.19909375C681.5794272460937,977.19909375,642.1814272460938,977.19909375,602.7824272460937,977.19909375C563.3844272460938,977.19909375,523.9854272460938,977.19909375,484.58742724609374,977.19909375C445.18842724609374,977.19909375,405.79042724609377,977.19909375,366.3914272460937,977.19909375C326.99342724609374,977.19909375,287.59442724609374,977.19909375,248.19642724609375,977.19909375C208.79752724609375,977.19909375,169.39892724609376,977.19909375,149.69972724609374,977.19909375L130.00042724609375,977.19909375L130.00042724609375,655.49609375Z" fill="#D5E3FF" fill-opacity="1"/><path d="M128.00042724609375,977.19909375L128.00042724609375,651.70946375L150.82722724609374,667.29039375Q152.20772724609375,668.19709375,155.31712724609375,670.25869375Q166.68432724609374,677.79519375,173.58752724609374,682.08519375Q185.53672724609373,689.51109375,196.21382724609373,695.08369375Q224.95362724609373,710.08339375,248.51142724609375,713.84029375Q275.98642724609374,718.22209375,306.8094272460937,710.52909375Q333.60142724609375,703.84209375,365.46942724609374,687.27419375Q370.44342724609373,684.78309375,380.35342724609376,679.56959375Q388.97442724609374,675.03419375,393.2924272460937,672.84449375Q400.50742724609376,669.18619375,406.28942724609374,666.58469375Q420.82442724609376,660.04464375,432.50342724609374,657.45748375Q446.6484272460938,654.32395375,459.07542724609374,656.30201575Q473.05342724609375,658.52678375,485.7254272460938,667.29779375Q498.29542724609377,675.83749375,513.9244272460937,693.97149375Q520.1394272460938,701.18279375,527.8964272460937,711.11599375Q532.5394272460937,717.06039375,541.8264272460938,729.32429375Q552.2424272460937,743.08039375,557.4404272460938,749.68119375Q566.0904272460937,760.66509375,572.9974272460938,768.38809375Q581.2514272460937,777.61609375,588.4534272460937,783.84409375Q596.4614272460938,790.76909375,603.6914272460938,794.4600937499999Q614.7344272460937,800.0950937499999,626.8704272460938,799.64109375Q637.7754272460937,799.23309375,650.3204272460938,793.85709375Q660.8934272460938,789.32509375,674.1654272460937,780.52109375Q679.5014272460937,776.98109375,686.1814272460938,772.15809375Q690.1974272460938,769.25809375,698.2414272460937,763.29209375Q712.6374272460937,752.61629375,719.8544272460938,747.71369375Q743.2124272460937,731.54649375,771.6444272460938,718.77289375Q782.2114272460938,714.02519375,794.1064272460937,709.47099375Q800.9814272460937,706.83859375,812.4464272460938,702.76149375Q816.8614272460937,701.19139375,818.7914272460938,700.48959375L818.8124272460938,700.48179375L841.1744272460937,692.92149375L841.1744272460937,979.19909375L819.4744272460938,979.19909375L720.9794272460938,979.19909375L720.9784272460937,979.19909375L602.7824272460937,979.19909375L535.2424272460937,979.19909375L484.58742724609374,979.19909375L366.3914272460937,979.19909375L287.59442724609374,979.19909375L248.19642724609375,979.19909375L248.19642724609375,979.19909375L149.69972724609374,979.19909375L128.00042724609375,979.19909375L128.00042724609375,977.19909375ZM132.00042724609375,977.19909375L130.00042724609375,977.19909375L130.00042724609375,975.19909375L149.69972724609374,975.19909375L248.19642724609375,975.19909375L248.19642724609375,975.19909375L287.59442724609374,975.19909375L366.3914272460937,975.19909375L484.58742724609374,975.19909375L535.2424272460937,975.19909375L602.7824272460937,975.19909375L720.9784272460937,975.19909375L720.9794272460938,975.19909375L819.4744272460938,975.19909375L839.1744272460937,975.19909375L839.1744272460937,977.19909375L837.1744272460937,977.19909375L837.1744272460937,695.70889375L839.1744272460937,695.70889375L839.8144272460937,697.60359375L820.1154272460938,704.26379375L819.4744272460938,702.36919375L820.1584272460938,704.24879375Q818.2194272460938,704.95369375,813.7864272460937,706.53029375Q802.3674272460937,710.59109375,795.5364272460937,713.20649375Q783.7484272460938,717.72019375,773.2834272460938,722.42159375Q745.1874272460938,735.04469375,722.1024272460937,751.02229375Q714.9554272460938,755.8780937500001,700.6244272460938,766.50509375Q692.5604272460937,772.48609375,688.5224272460938,775.40109375Q681.7784272460938,780.27109375,676.3764272460937,783.85409375Q662.8024272460938,792.85909375,651.8964272460937,797.53309375Q638.6674272460937,803.20309375,627.0204272460937,803.63809375Q613.8434272460938,804.13109375,601.8734272460938,798.0220937500001Q594.2114272460938,794.11209375,585.8364272460938,786.87009375Q578.4414272460938,780.47409375,570.0164272460938,771.05509375Q563.0254272460937,763.23809375,554.2984272460938,752.15579375Q549.0784272460937,745.52689375,538.6374272460937,731.7390937499999Q529.3704272460938,719.5012937500001,524.7444272460938,713.57799375Q517.0464272460938,703.72089375,510.89442724609376,696.58289375Q495.61042724609376,678.84919375,483.44942724609376,670.58679375Q471.5254272460937,662.33393375,458.44742724609375,660.25229375Q446.77042724609373,658.39379375,433.36842724609374,661.36280375Q422.0904272460937,663.86104375,407.93042724609376,670.23239375Q402.23342724609375,672.79579375,395.10142724609375,676.41209375Q390.8094272460938,678.58849375,382.2154272460938,683.10959375Q372.26942724609376,688.34189375,367.3144272460937,690.82319375Q335.02842724609377,707.60879375,307.77842724609377,714.40999375Q276.1624272460938,722.30079375,247.88142724609375,717.79039375Q223.68032724609375,713.93089375,194.36302724609374,698.62979375Q183.55282724609376,692.98779375,171.47622724609374,685.48259375Q164.52312724609374,681.16159375,153.10682724609376,673.59249375Q150.00362724609374,671.53499375,148.57212724609374,670.59409375L128.87290724609375,657.14797375L130.00042724609375,655.49609375L132.00042724609375,655.49609375L132.00042724609375,977.19909375Z" fill="#D5E3FF" fill-opacity="1"/></g><g><path d="M130.0001220703125,762.1962890625L149.6994220703125,771.1827290625C169.3986220703125,779.8331890625,208.7972220703125,798.3100890625,248.1961220703125,802.5092890625C287.5941220703125,806.7085890625,326.9931220703125,798.3100890625,366.39112207031246,784.6203890625C405.7901220703125,771.4346890625,445.1881220703125,752.9578890625,484.5871220703125,771.1827290625C523.9851220703125,789.0715890625,563.3841220703125,842.8222890625,602.7821220703124,856.2599890625C642.1811220703125,869.6972890625,681.5791220703125,842.8222890625,720.9781220703125,824.9333890625C760.3771220703125,806.7085890625,799.7751220703125,798.3100890625,819.4741220703125,793.5228890625L839.1741220703125,789.0715890625L839.1741220703125,977.1992890624999L819.4741220703125,977.1992890624999C799.7751220703125,977.1992890624999,760.3771220703125,977.1992890624999,720.9781220703125,977.1992890624999C681.5791220703125,977.1992890624999,642.1811220703125,977.1992890624999,602.7821220703124,977.1992890624999C563.3841220703125,977.1992890624999,523.9851220703125,977.1992890624999,484.5871220703125,977.1992890624999C445.1881220703125,977.1992890624999,405.7901220703125,977.1992890624999,366.39112207031246,977.1992890624999C326.9931220703125,977.1992890624999,287.5941220703125,977.1992890624999,248.1961220703125,977.1992890624999C208.7972220703125,977.1992890624999,169.3986220703125,977.1992890624999,149.6994220703125,977.1992890624999L130.0001220703125,977.1992890624999L130.0001220703125,762.1962890625Z" fill="#FFFFFF" fill-opacity="1"/></g><g><path d="M130,870.010498046875L149.6993,874.490618046875C169.3985,878.803258046875,208.7971,888.014698046875,248.196,890.108298046875C287.594,892.201798046875,326.993,888.014698046875,366.39099999999996,881.189898046875C405.79,874.616228046875,445.188,865.404768046875,484.587,874.490618046875C523.985,883.408998046875,563.384,910.205998046875,602.7819999999999,916.9051980468751C642.181,923.604498046875,681.579,910.205998046875,720.978,901.287598046875C760.377,892.201798046875,799.775,888.014698046875,819.474,885.628098046875L839.174,883.408998046875L839.174,977.198498046875L819.474,977.198498046875C799.775,977.198498046875,760.377,977.198498046875,720.978,977.198498046875C681.579,977.198498046875,642.181,977.198498046875,602.7819999999999,977.198498046875C563.384,977.198498046875,523.985,977.198498046875,484.587,977.198498046875C445.188,977.198498046875,405.79,977.198498046875,366.39099999999996,977.198498046875C326.993,977.198498046875,287.594,977.198498046875,248.196,977.198498046875C208.7971,977.198498046875,169.3985,977.198498046875,149.6993,977.198498046875L130,977.198498046875L130,870.010498046875Z" fill="#FFDAD6" fill-opacity="1"/><path d="M128,977.198498046875L128,867.504578046875L150.1428,872.540418046875Q151.5347,872.845078046875,154.643,873.531728046875Q166.0217,876.045348046875,172.937,877.477258046875Q184.9184,879.958168046875,195.6307,881.820998046875Q224.54160000000002,886.848498046875,248.30200000000002,888.111098046875Q276.044,889.585198046875,307.128,887.000298046875Q334.06,884.760598046875,366.05,879.219218046875Q371.017,878.390348046875,380.938,876.651318046875Q398.18,873.629048046875,406.813,872.334888046875Q421.235,870.172785046875,432.788,869.320045046875Q446.688,868.294058046875,458.867,868.939928046875Q472.569,869.666561046875,485.036,872.541768046875Q497.537,875.371398046875,513.13,881.399698046875Q519.345,883.802398046875,527.105,887.113098046875Q531.7529999999999,889.096198046875,541.037,893.180998046875Q551.447,897.761598046875,556.648,899.962398046875Q565.2950000000001,903.621098046875,572.2049999999999,906.194998046875Q589.403,912.601598046875,603.1179999999999,914.933498046875Q614.4449999999999,916.859598046875,626.9200000000001,916.704198046875Q638.066,916.565398046875,650.825,914.743398046875Q661.489,913.220498046875,674.839,910.269898046875Q682.871,908.494598046875,698.953,904.5206980468749Q713.332,900.9676980468751,720.536,899.336998046875Q743.826,893.965998046875,772.168,889.723498046875Q788.156,887.330198046875,812.881,884.400598046875Q817.305,883.876298046875,819.234,883.642598046875L841.174,881.170998046875L841.174,979.198498046875L819.474,979.198498046875L720.978,979.198498046875L661.88,979.198498046875L602.7819999999999,979.198498046875L543.685,979.198498046875L484.587,979.198498046875L425.489,979.198498046875L366.39099999999996,979.198498046875L248.196,979.198498046875L248.195,979.198498046875L149.6993,979.198498046875L128,979.198498046875L128,977.198498046875ZM132,977.198498046875L130,977.198498046875L130,975.198498046875L149.6993,975.198498046875L248.195,975.198498046875L248.196,975.198498046875L366.39099999999996,975.198498046875L425.489,975.198498046875L484.587,975.198498046875L543.685,975.198498046875L602.7819999999999,975.198498046875L661.88,975.198498046875L720.978,975.198498046875L819.474,975.198498046875L839.174,975.198498046875L839.174,977.198498046875L837.174,977.198498046875L837.174,883.408998046875L839.174,883.408998046875L839.398,885.396398046875L819.715,887.613598046875Q817.779,887.848098046875,813.352,888.372798046875Q788.687,891.295298046875,772.76,893.679498046875Q744.572,897.898898046875,721.419,903.238298046875Q714.254,904.860298046875,699.913,908.403998046875Q683.782,912.3897980468751,675.702,914.175598046875Q662.204,917.158898046875,651.39,918.7031980468751Q638.375,920.561798046875,626.97,920.703898046875Q614.1320000000001,920.863798046875,602.447,918.876898046875Q588.361,916.481798046875,570.809,909.943398046875Q563.817,907.338898046875,555.0899999999999,903.646198046875Q549.8620000000001,901.434198046875,539.4259999999999,896.842198046875Q530.163,892.766498046875,525.5350000000001,890.792198046875Q517.8389999999999,887.508398046875,511.688,885.130598046875Q496.368,879.207998046875,484.137,876.439468046875Q472.009,873.642508046875,458.655,872.934308046875Q446.73,872.301878046875,433.083,873.309198046875Q421.679,874.150868046875,407.406,876.290678046875Q398.823,877.577458046875,381.629,880.591298046875Q371.69100000000003,882.333198046875,366.733,883.160498046875Q334.568,888.732198046875,307.459,890.986598046875Q276.10400000000004,893.593998046875,248.089,892.105398046875Q224.09120000000001,890.830198046875,194.9454,885.761898046875Q184.1701,883.888098046875,172.126,881.394198046875Q165.1849,879.956928046875,153.7802,877.437558046875Q150.6755,876.751718046875,149.2557,876.440818046875L129.556474,871.960698046875L130,870.010498046875L132,870.010498046875L132,977.198498046875Z" fill="#FFDAD6" fill-opacity="1"/></g></g></g></svg>