<svg xmlns="http://www.w3.org/2000/svg" xmlns:xlink="http://www.w3.org/1999/xlink" fill="none" version="1.1" width="64" height="64" viewBox="0 0 64 64"><g style="mix-blend-mode:passthrough"><g style="mix-blend-mode:passthrough"><g style="mix-blend-mode:passthrough"></g><g><path d="M12.1831,22.8926Q8.8569,22.8926,7.1667,24.0302Q5.38028,25.2325,5.38028,27.9865Q5.38028,29.5736,5.9451,31.0157Q6.48359,32.3906,7.45681,33.4416Q9.43873,35.581900000000005,12.1831,35.581900000000005L12.1831,22.8926ZM12.1831,38.7345Q10.06357,38.7345,8.133890000000001,37.8531Q6.29968,37.015299999999996,4.898540000000001,35.5022Q3.52083,34.014399999999995,2.770019,32.0974Q2,30.1314,2,27.9865Q2,23.6197,5.1886399999999995,21.4737Q7.7646,19.740000000000002,12.1831,19.740000000000002C12.1831,19.740000000000002,12.2055,19.74013,12.2055,19.74013C12.3715,18.235,13.4495,16.934,15.0014,16.41702L30.5718,11.230728C31.4954,10.9230915,32.5047,10.9230915,33.4283,11.230728L48.9987,16.41702C50.5506,16.934,51.6287,18.23501,51.7946,19.74015C51.7946,19.74015,51.8169,19.740000000000002,51.8169,19.740000000000002Q56.2354,19.740000000000002,58.8114,21.4737Q62,23.6197,62,27.9865Q62,30.1314,61.23,32.0974Q60.4792,34.014399999999995,59.1015,35.5022Q57.7003,37.015299999999996,55.8661,37.8531Q53.9365,38.7345,51.817,38.7345L51.817,41.9161C51.817,43.0846,51.2651,44.1935,50.2715,44.9051C46.8163,47.3794,38.2771,53,32.0001,53C25.7231,53,17.183799999999998,47.3794,13.7286,44.9051C12.7351,44.1935,12.1831,43.0846,12.1831,41.9161L12.1831,38.7345ZM51.817,35.581900000000005Q54.5613,35.581900000000005,56.5432,33.4416Q57.5164,32.3906,58.0549,31.0157Q58.6197,29.5736,58.6197,27.9865Q58.6197,25.2325,56.8333,24.0302Q55.1431,22.8926,51.817,22.8926L51.817,35.581900000000005ZM32.0001,29.6795L42.5682,34.607600000000005C42.8029,34.717,43.0616,34.774,43.324,34.774C43.324,34.774,43.3469,34.7739,43.3469,34.7739C43.9788,34.7659,44.5531,34.4298,44.8357,33.902699999999996C44.9531,33.683800000000005,45.0142,33.4424,45.0142,33.1977L45.0142,33.192C45.0135,33.0245,44.9842,32.8582,44.9274,32.699200000000005C44.7857,32.3026,44.4808,31.9748,44.0799,31.7878L44.0784,31.7871L32.7559,26.507199999999997C32.280100000000004,26.2853,31.7201,26.2853,31.2442,26.507199999999997L19.9203,31.7878C19.3477,32.0548,18.986,32.6007,18.986,33.1977C18.986,33.217,18.9864,33.2364,18.9872,33.255700000000004C18.996,33.4807,19.0565,33.7013,19.1644,33.902699999999996C19.4507,34.4367,20.036,34.774,20.6762,34.774C20.6969,34.774,20.7176,34.773700000000005,20.7383,34.772999999999996C20.9796,34.764700000000005,21.2161,34.7083,21.432,34.607600000000005L32.0001,29.6795ZM38.4498,42.5822L38.4483,42.5816L32,40.176100000000005L25.5514,42.5818L25.5503,42.5822C25.3573,42.6542,25.1518,42.6924,24.944,42.6948C24.944,42.6948,24.9226,42.695,24.9226,42.695C24.6937,42.695,24.4672,42.6516,24.2568,42.567499999999995C23.8448,42.4028,23.5198,42.0922,23.3533,41.7041C23.2742,41.5196,23.2332,41.322900000000004,23.2324,41.1242L23.2324,41.1186C23.2324,40.4741,23.6532,39.8945,24.2948,39.655100000000004L31.3723,37.0148C31.7753,36.8644,32.2248,36.8644,32.627700000000004,37.0148L39.7052,39.655100000000004C40.3453,39.8939,40.7658,40.4714,40.7676,41.1144L40.7676,41.1186C40.7676,41.319199999999995,40.7266,41.5179,40.6467,41.7041C40.4803,42.0922,40.1553,42.4028,39.7433,42.567499999999995C39.5393,42.649,39.32,42.6923,39.0981,42.6948C39.0981,42.6948,39.0775,42.695,39.0775,42.695C38.8625,42.695,38.6494,42.6567,38.4498,42.5822Z" fill-rule="evenodd" fill="#175EAD" fill-opacity="1"/></g></g></g></svg>