<svg xmlns="http://www.w3.org/2000/svg" xmlns:xlink="http://www.w3.org/1999/xlink" fill="none" version="1.1" width="64" height="64" viewBox="0 0 64 64"><defs><clipPath id="master_svg0_6_013264"><rect x="0" y="0" width="64" height="64" rx="0"/></clipPath></defs><g clip-path="url(#master_svg0_6_013264)"><g></g><g><path d="M31.999951953125,58.666643505859376C17.271951953125,58.666643505859376,5.333251953125,46.728043505859375,5.333251953125,32.000043505859374C5.333251953125,17.272043505859376,17.271951953125,5.333343505859375,31.999951953125,5.333343505859375C46.727951953125,5.333343505859375,58.666551953125,17.272043505859376,58.666551953125,32.000043505859374C58.666551953125,46.728043505859375,46.727951953125,58.666643505859376,31.999951953125,58.666643505859376ZM48.946551953125,42.538643505859376L48.946551953125,42.258643505859375C48.946551953125,39.80004350585938,48.946551953125,38.677343505859376,47.207951953125,37.682643505859374C46.649051953125,37.365843505859374,46.075051953125,37.07664350585938,45.487951953125,36.816043505859376C44.509251953125,36.37064350585938,43.861251953125,36.08004350585938,42.986551953125,34.80004350585938C42.882151953125,34.64804350585938,42.779051953125,34.495143505859374,42.677251953125,34.34134350585937C41.757251953125,32.94134350585938,41.093251953125,31.933343505859376,38.565251953125,32.333343505859375C33.591951953125005,33.12264350585937,33.223951953124995,33.99734350585938,33.005251953125,35.474643505859376L32.970551953124996,35.717343505859375C32.647951953125,37.87734350585937,32.589251953125,38.602643505859376,33.490551953125,39.549343505859376C36.863951953124996,43.088043505859375,38.885251953125,45.640043505859374,39.498551953125,47.13334350585937C39.797251953125,47.861343505859374,40.565251953125,50.066643505859375,40.037251953125,52.24804350585938C43.274151953125,50.958743505859374,46.155251953125,48.91324350585938,48.439951953125,46.282643505859376C48.733251953125,45.28534350585937,48.946551953125,44.042643505859374,48.946551953125,42.538643505859376ZM31.999951953125,10.221343505859375C25.821251953125,10.221343505859375,20.239951953125,12.797343505859375,16.277251953125003,16.930643505859376C16.749251953125,17.258643505859375,17.159951953125002,17.720043505859373,17.442551953124998,18.354643505859375C17.986551953125,19.573343505859377,17.986551953125,20.829343505859377,17.986551953125,21.941343505859376C17.986551953125,22.816043505859376,17.986551953125,23.648043505859373,18.266551953125,24.248043505859375C18.650551953125,25.069343505859376,20.309251953125,25.421343505859376,21.773251953125,25.725343505859374C22.298551953125,25.837343505859376,22.837251953125,25.949343505859375,23.327951953125,26.085343505859374C24.677251953125,26.458643505859374,25.722551953125,27.672043505859374,26.557251953125,28.645343505859376C26.903951953125,29.048043505859376,27.418551953125,29.642643505859375,27.677251953125,29.792043505859375C27.810551953125,29.696043505859375,28.239951953125,29.229343505859376,28.450551953125,28.464043505859376C28.615951953125,27.877343505859375,28.567951953125,27.360043505859377,28.330551953125,27.077343505859375C26.837251953125,25.317343505859377,26.919951953125,21.930643505859376,27.381251953125,20.680043505859373C28.106551953125,18.709343505859373,30.373251953125,18.856043505859375,32.031951953125,18.962643505859376C32.650551953125,19.002643505859375,33.231951953125005,19.042643505859374,33.669251953125,18.986643505859377C35.327951953125,18.778643505859375,35.839951953124995,16.253343505859377,36.199951953125,15.760043505859375C36.978551953125,14.693343505859374,39.362551953125,13.085343505859374,40.839951953125,12.093343505859375C38.057251953125,10.855993505859374,35.045251953125,10.218163505859376,31.999951953125,10.221343505859375Z" fill="#175EAD" fill-opacity="1"/></g></g></svg>