<svg xmlns="http://www.w3.org/2000/svg" xmlns:xlink="http://www.w3.org/1999/xlink" fill="none" version="1.1" width="64.0000002878457" height="64.0000002878457" viewBox="0 0 64.0000002878457 64.0000002878457"><defs><clipPath id="master_svg0_6_013243"><rect x="0" y="2.8784569394701975e-7" width="64" height="64" rx="0"/></clipPath></defs><g transform="matrix(1,-4.497588967922184e-9,4.497588967922184e-9,1,-1.2946116175600213e-15,0)" clip-path="url(#master_svg0_6_013243)"><g></g><g><path d="M55.999951953125,8.000000287845694C57.471951953125,8.000000287845694,58.666551953125,9.194670287845694,58.666551953125,10.666670287845694L58.666551953125,48.000000287845694C58.666551953125,49.472000287845695,57.471951953125,50.66670028784569,55.999951953125,50.66670028784569L17.213251953125003,50.66670028784569L5.333251953125,60.000000287845694L5.333251953125,10.666670287845694C5.333251953125,9.194670287845694,6.527921953125,8.000000287845694,7.999921953125,8.000000287845694L55.999951953125,8.000000287845694ZM29.231951953125,21.600000287845695L28.039951953125,19.765300287845694C23.274551953125,21.832000287845695,19.999951953125,26.013300287845695,19.999951953125,30.680000287845694C19.999951953125,33.333300287845695,20.738551953125,34.970700287845695,22.111951953125,36.42930028784569C22.975951953125,37.34670028784569,24.343951953125,38.000000287845694,25.775951953125,38.000000287845694C28.351951953125,38.000000287845694,30.442551953125,35.909300287845696,30.442551953125,33.333300287845695C30.442551953125,30.880000287845693,28.546551953125,28.904000287845694,26.138551953125,28.680000287845694C25.711951953125,28.640000287845695,25.274551953125,28.648000287845694,24.861251953125,28.706700287845695L24.861251953125,28.461300287845695C24.877251953125,27.336000287845692,25.106551953125,24.106700287845694,28.738551953125,21.885300287845695L29.231951953125,21.600000287845695L28.039951953125,19.765300287845694L29.231951953125,21.600000287845695ZM41.373251953125,19.765300287845694C36.607951953124996,21.832000287845695,33.333251953125,26.013300287845695,33.333251953125,30.680000287845694C33.333251953125,33.333300287845695,34.071951953125,34.970700287845695,35.445251953124995,36.42930028784569C36.309251953125,37.34670028784569,37.677251953125,38.000000287845694,39.109251953125,38.000000287845694C41.685251953125,38.000000287845694,43.775951953125,35.909300287845696,43.775951953125,33.333300287845695C43.775951953125,30.880000287845693,41.879951953125,28.904000287845694,39.471951953125,28.680000287845694C39.045251953125,28.640000287845695,38.607951953125,28.648000287845694,38.194551953125,28.706700287845695C38.194551953125,27.872000287845694,38.117251953125,24.008000287845693,42.565251953125,21.600000287845695L41.373251953125,19.765300287845694Z" fill="#175EAD" fill-opacity="1"/></g></g></svg>