<svg xmlns="http://www.w3.org/2000/svg" xmlns:xlink="http://www.w3.org/1999/xlink" fill="none" version="1.1" width="64" height="64" viewBox="0 0 64 64"><g style="mix-blend-mode:passthrough"><g style="mix-blend-mode:passthrough"><g style="mix-blend-mode:passthrough"></g><g><path d="M32.0119,3L7,10.43472L7,25.6745C7,41.7039,17.072400000000002,55.9343,32.0036,61C46.9308,55.9341,57,41.707,57,25.6815L57,10.43472L32.0119,3ZM30.1364,40.7678L46.8031,23.7924C47.1781,23.4104,47.3888,22.8922,47.3888,22.352C47.3888,21.8117,47.1781,21.2936,46.8031,20.9116C46.428,20.5295,45.9193,20.3149,45.3888,20.3149C44.8584,20.3149,44.3497,20.5295,43.9746,20.9116L28.7222,36.4466L20.4142,27.9846C20.039099999999998,27.6026,19.5304,27.388,19,27.388C18.9655,27.388,18.930999999999997,27.3889,18.8965,27.3907C18.4025,27.4168,17.9356,27.6284,17.5858,27.9846C17.2107,28.3667,17,28.8848,17,29.4251C17,29.4577,17.000799999999998,29.4903,17.002299999999998,29.5229C17.0262,30.0287,17.2342,30.5074,17.5858,30.8655L27.308,40.7678C27.6831,41.1498,28.1918,41.3644,28.7222,41.3644C29.2526,41.3644,29.7614,41.1498,30.1364,40.7678Z" fill-rule="evenodd" fill="#175EAD" fill-opacity="1"/></g></g></g></svg>