<svg xmlns="http://www.w3.org/2000/svg" xmlns:xlink="http://www.w3.org/1999/xlink" fill="none" version="1.1" width="64" height="64" viewBox="0 0 64 64"><defs><clipPath id="master_svg0_6_013255"><rect x="0" y="0" width="64" height="64" rx="0"/></clipPath></defs><g clip-path="url(#master_svg0_6_013255)"><g></g><g><path d="M56.000048046875,53.333343505859375L61.333448046875,53.333343505859375L61.333448046875,58.666643505859376L2.666748046875,58.666643505859376L2.666748046875,53.333343505859375L8.000078046875,53.333343505859375L8.000078046875,8.000013505859375C8.000078046875,6.527253505859375,9.193988046874999,5.333343505859375,10.666748046875,5.333343505859375L53.333448046875,5.333343505859375C54.806148046875,5.333343505859375,56.000048046875,6.527253505859375,56.000048046875,8.000013505859375L56.000048046875,53.333343505859375ZM29.333448046875,21.333343505859375L24.000048046875,21.333343505859375L24.000048046875,26.666643505859376L29.333448046875,26.666643505859376L29.333448046875,32.000043505859374L34.666748046875,32.000043505859374L34.666748046875,26.666643505859376L40.000048046875,26.666643505859376L40.000048046875,21.333343505859375L34.666748046875,21.333343505859375L34.666748046875,16.000043505859374L29.333448046875,16.000043505859374L29.333448046875,21.333343505859375ZM37.333448046875,53.333343505859375L42.666748046875,53.333343505859375L42.666748046875,37.333343505859375L21.333448046875,37.333343505859375L21.333448046875,53.333343505859375L26.666748046875,53.333343505859375L26.666748046875,42.666643505859376L37.333448046875,42.666643505859376L37.333448046875,53.333343505859375Z" fill="#175EAD" fill-opacity="1"/></g></g></svg>