<svg xmlns="http://www.w3.org/2000/svg" xmlns:xlink="http://www.w3.org/1999/xlink" fill="none" version="1.1" width="64" height="64" viewBox="0 0 64 64"><defs><clipPath id="master_svg0_6_013258"><rect x="0" y="0" width="64" height="64" rx="0"/></clipPath></defs><g clip-path="url(#master_svg0_6_013258)"><g></g><g><path d="M32.00003327770233,32.00003396911621C24.63623327770233,32.00003396911621,18.66663327770233,26.03043396911621,18.66663327770233,18.666633969116212C18.66663327770233,11.302873969116211,24.63623327770233,5.333334445953211,32.00003327770233,5.333333969116211C39.363833277702334,5.333334445953211,45.33333327770233,11.302873969116211,45.33333327770233,18.666633969116212C45.33333327770233,26.03043396911621,39.363833277702334,32.00003396911621,32.00003327770233,32.00003396911621ZM48.00003327770233,45.33333396911621L48.00003327770233,58.66663396911621L42.66663327770233,58.66663396911621L42.66663327770233,45.33333396911621C42.66663327770233,33.464033969116215,49.71733327770233,23.24003396911621,59.85863327770233,18.624033969116212L62.06663327770233,23.47733396911621C53.50003327770233,27.37173396911621,48.00003327770233,35.917333969116214,48.00003327770233,45.33333396911621ZM21.33333327770233,45.33333396911621L21.33333327770233,58.66663396911621L16.000033277702332,58.66663396911621L16.000033277702332,45.33333396911621C16.000833277702334,35.92113396911621,10.500973277702332,27.376833969116213,1.9333332777023315,23.48003396911621L4.141333277702332,18.624033969116212C14.611533277702332,23.384733969116212,21.33333327770233,33.82773396911621,21.33333327770233,45.33333396911621Z" fill="#175EAD" fill-opacity="1"/></g></g></svg>