<svg xmlns="http://www.w3.org/2000/svg" xmlns:xlink="http://www.w3.org/1999/xlink" fill="none" version="1.1" width="36.000003814697266" height="42" viewBox="0 0 36.000003814697266 42"><g style="mix-blend-mode:passthrough"><path d="M0.435974,2.18404C0,3.03969,0,4.15979,0,7.25565L0,8.00003L18,8.00003C17.0869,10.1706,15.2137,11.7263,13,11.9674L13,18L29,18C28.0869,20.1706,26.2137,21.7263,24,21.9674L24,32L36,32L36,7.25565C36,4.15979,36,3.03969,35.564,2.18404C35.1805,1.43139,34.5686,0.819468,33.816,0.435974C32.9603,0,31.8402,0,28.7444,0L7.25565,0C4.15979,0,3.03969,0,2.18404,0.435974C1.43139,0.819467,0.819468,1.43139,0.435974,2.18404ZM22,22L22,32L5.62782,32C4.0799,32,3.51984,32,3.09202,32.218C2.71569,32.4097,2.40973,32.7157,2.21799,33.092C2,33.5198,2,34.0799,2,35.6278L2,36.3722C2,37.9201,2,38.4802,2.21799,38.908C2.40973,39.2843,2.71569,39.5903,3.09202,39.782C3.51984,40,4.0799,40,5.62782,40L35.4641,40C35.0782,40.6684,34.5063,41.2123,33.816,41.564C32.9603,42,31.8402,42,28.7444,42L7.25565,42C4.15979,42,3.03969,42,2.18404,41.564C1.43139,41.1805,0.819467,40.5686,0.435974,39.816C0,38.9603,0,37.8402,0,34.7444L0,19.0004L9,19.0004L9,15.0004L0,15.0004L-0.00000478192,12L11,12L11,22.0004L13,22L22,22ZM11,25.0004L20,25.0004L20,29.0004L11,29.0004L11,25.0004ZM4.10899,34.546C4,34.7599,4,35.0399,4,35.8139L4,36.1861C4,36.9601,4,37.2401,4.10899,37.454C4.20487,37.6422,4.35785,37.7951,4.54601,37.891C4.75992,38,5.03995,38,5.81391,38L34.1861,38C34.9601,38,35.2401,38,35.454,37.891C35.6422,37.7951,35.7951,37.6422,35.891,37.454C36,37.2401,36,36.9601,36,36.1861L36,34L5.81391,34C5.03995,34,4.75992,34,4.54601,34.109C4.35785,34.2049,4.20487,34.3578,4.10899,34.546Z" fill-rule="evenodd" fill="#FFFFFF" fill-opacity="1"/></g></svg>