<svg xmlns="http://www.w3.org/2000/svg" xmlns:xlink="http://www.w3.org/1999/xlink" fill="none" version="1.1" width="36.000003814697266" height="28" viewBox="0 0 36.000003814697266 28"><g style="mix-blend-mode:passthrough"><path d="M0.0465991,4.00003L18,4.00003C17.0869,6.17058,15.2137,7.72632,13,7.96739L13,14L29,14C28.0869,16.1706,26.2137,17.7263,24,17.9674L24,28L28.7444,28C31.8402,28,32.9603,28,33.816,27.564C34.5686,27.1805,35.1805,26.5686,35.564,25.816C36,24.9603,36,23.8402,36,20.7444L36,7.25565C36,4.15979,36,3.03969,35.564,2.18404C35.1805,1.43139,34.5686,0.819468,33.816,0.435974C32.9603,0,31.8402,0,28.7444,0L7.25565,0C4.15979,0,3.03969,0,2.18404,0.435974C1.43139,0.819467,0.819468,1.43139,0.435974,2.18404C0.206903,2.63362,0.098191,3.1562,0.0465991,4.00003ZM22,28L22,18L13,18L11,18.0004L11,8.00003L-0.00000478192,8.00003L0,11.0004L9,11.0004L9,15.0004L0,15.0004L0,20.7444C0,23.8402,0,24.9603,0.435974,25.816C0.819468,26.5686,1.43139,27.1805,2.18404,27.564C3.03969,28,4.15979,28,7.25565,28L22,28ZM11,21.0004L20,21.0004L20,25.0004L11,25.0004L11,21.0004Z" fill-rule="evenodd" fill="#FFFFFF" fill-opacity="1"/></g></svg>