<svg width="172" height="59" viewBox="0 0 172 59" fill="none" xmlns="http://www.w3.org/2000/svg">
<path d="M8.992 48.608C7.15733 47.4133 6.06933 46.2187 5.728 45.024C5.42933 43.8293 5.856 42.8693 7.008 42.144C7.264 41.9733 7.75467 41.952 8.48 42.08C9.248 42.208 9.824 42.464 10.208 42.848C11.0613 43.616 12.0213 44.0853 13.088 44.256C14.1973 44.4693 15.5413 44.3627 17.12 43.936C18.912 43.3813 20.2773 42.6987 21.216 41.888C22.1973 41.0347 23.2853 39.8827 24.48 38.432C25.376 37.28 25.9947 36.1493 26.336 35.04C26.72 33.9307 26.8907 32.928 26.848 32.032C26.848 31.0933 26.6347 30.3893 26.208 29.92C25.1413 28.4267 23.8187 27.4027 22.24 26.848C20.6613 26.2507 18.592 26.2933 16.032 26.976C15.7333 27.0187 15.2853 27.104 14.688 27.232C14.0907 27.36 13.5573 27.488 13.088 27.616C12.6187 27.7013 12.3627 27.744 12.32 27.744C12.0213 27.8293 11.7867 27.872 11.616 27.872C11.4453 27.872 11.232 28.0853 10.976 28.512C10.7627 28.896 10.4213 29.728 9.952 31.008C9.48267 32.2453 8.77867 34.1653 7.84 36.768C6.944 39.3707 6.176 41.2267 5.536 42.336C4.93867 43.4027 4.40533 43.8933 3.936 43.808C3.46667 43.68 2.93333 43.2107 2.336 42.4C1.99467 41.8027 1.61067 41.1413 1.184 40.416C0.8 39.6907 0.821334 38.944 1.248 38.176C1.46133 37.792 1.632 37.4507 1.76 37.152C1.888 36.8107 2.05867 36.2347 2.272 35.424C2.48533 34.784 2.89067 33.6747 3.488 32.096C4.128 30.4747 4.87467 28.5973 5.728 26.464C6.58133 24.288 7.47733 22.048 8.416 19.744C9.35467 17.44 10.2507 15.264 11.104 13.216C12 11.168 12.7467 9.44 13.344 8.032C13.9413 6.70933 14.304 5.74933 14.432 5.152C14.56 4.55466 14.5173 4.23466 14.304 4.192C14.304 3.97866 14.24 3.78666 14.112 3.616C13.984 3.40266 13.9413 3.21066 13.984 3.04C13.984 2.86933 14.3467 2.63466 15.072 2.336C15.84 2.03733 16.6507 1.76 17.504 1.504C18.3573 1.248 18.976 1.16267 19.36 1.248C19.5733 1.248 19.8293 1.248 20.128 1.248C20.4267 1.20533 20.576 1.09866 20.576 0.927998C20.704 0.927998 21.1093 0.885331 21.792 0.799999C22.4747 0.714664 23.2213 0.714664 24.032 0.799999C26.8907 1.056 29.2373 1.888 31.072 3.296C32.9067 4.66133 33.8027 6.85866 33.76 9.888C33.7173 10.6133 33.4187 11.552 32.864 12.704C32.3093 13.856 31.6053 15.008 30.752 16.16C29.9413 17.312 29.0667 18.3147 28.128 19.168C27.5733 19.6373 26.976 20.128 26.336 20.64C25.7387 21.1093 25.2053 21.5147 24.736 21.856C24.3093 22.1547 24.096 22.304 24.096 22.304C24.096 22.304 24.2667 22.368 24.608 22.496C24.9493 22.624 25.312 22.752 25.696 22.88C27.6587 23.6053 29.1947 24.5227 30.304 25.632C31.456 26.7413 32.2667 28.2773 32.736 30.24C32.9067 30.88 32.9067 31.6693 32.736 32.608C32.608 33.5467 32.416 34.4853 32.16 35.424C31.904 36.32 31.6267 37.088 31.328 37.728C31.0293 38.0267 30.7947 38.3467 30.624 38.688C30.4533 38.9867 30.368 39.136 30.368 39.136C30.368 39.2213 30.1973 39.5627 29.856 40.16C29.5147 40.7147 29.1093 41.3333 28.64 42.016C28.1707 42.6987 27.7227 43.296 27.296 43.808C26.8693 44.1493 26.2507 44.6187 25.44 45.216C24.672 45.856 23.8187 46.4747 22.88 47.072C21.984 47.6693 21.1307 48.1173 20.32 48.416C19.1253 48.928 17.7813 49.2693 16.288 49.44C14.8373 49.6533 13.4507 49.6747 12.128 49.504C10.8053 49.376 9.76 49.0773 8.992 48.608ZM13.6 22.048C13.6 22.048 13.9413 21.984 14.624 21.856C15.3493 21.6853 16.1387 21.5147 16.992 21.344C17.8453 21.1307 18.4853 20.9387 18.912 20.768C19.1253 20.64 19.424 20.4693 19.808 20.256C20.2347 20.0427 20.6613 19.7227 21.088 19.296C21.6853 18.7413 22.3253 18.1227 23.008 17.44C23.6907 16.7147 24.352 15.9467 24.992 15.136C25.6747 14.3253 26.2507 13.4507 26.72 12.512C27.7013 10.976 28.2347 9.86667 28.32 9.184C28.4053 8.50133 28.1707 7.88267 27.616 7.328C27.232 6.85866 26.6987 6.51733 26.016 6.304C25.3333 6.048 24.5867 5.92 23.776 5.92C23.008 5.87733 22.2613 5.96267 21.536 6.176C20.9813 6.34667 20.5547 6.56 20.256 6.816C19.9573 7.02933 19.808 7.37067 19.808 7.84C19.808 8.224 19.68 8.62933 19.424 9.056C19.2107 9.44 18.9973 9.73867 18.784 9.952C18.7413 10.2507 18.592 10.5493 18.336 10.848C18.1227 11.104 18.016 11.232 18.016 11.232C18.016 11.4027 17.7387 11.936 17.184 12.832C16.672 13.6853 16.1173 14.9227 15.52 16.544C14.752 18.3787 14.24 19.7013 13.984 20.512C13.728 21.3227 13.6 21.8347 13.6 22.048ZM40.252 43.552C39.6973 43.552 39.2493 43.4453 38.908 43.232C38.6093 43.0187 38.2253 42.72 37.756 42.336C36.9453 41.4827 36.284 40.5653 35.772 39.584C35.3027 38.6027 35.132 37.7493 35.26 37.024C35.388 36.6827 35.4307 36.3627 35.388 36.064C35.388 35.7227 35.388 35.552 35.388 35.552C35.1747 35.3387 35.1107 35.2107 35.196 35.168C35.2813 35.0827 35.3667 34.9547 35.452 34.784C35.708 34.784 35.7933 34.5493 35.708 34.08C35.6227 33.7387 35.7507 33.0133 36.092 31.904C36.476 30.752 36.988 29.664 37.628 28.64C37.884 28.2133 38.268 27.6587 38.78 26.976C39.292 26.2507 39.8467 25.5467 40.444 24.864C41.084 24.1387 41.66 23.5627 42.172 23.136C43.2387 22.24 44.22 21.5147 45.116 20.96C46.0547 20.4053 46.9933 20.0213 47.932 19.808C48.8707 19.5947 49.8307 19.488 50.812 19.488C51.836 19.488 52.668 19.8293 53.308 20.512C54.2893 20.9387 54.972 21.5147 55.356 22.24C55.7827 22.9653 56.06 23.904 56.188 25.056C56.316 26.336 56.188 27.9147 55.804 29.792C55.42 31.6267 54.3747 33.76 52.668 36.192C51.6013 37.728 50.556 38.9227 49.532 39.776C48.508 40.6293 47.3773 41.4187 46.14 42.144C45.244 42.7413 44.284 43.104 43.26 43.232C42.236 43.36 41.2333 43.4667 40.252 43.552ZM46.78 35.744C47.7187 34.9333 48.38 34.0373 48.764 33.056C49.1907 32.0747 49.6387 30.9227 50.108 29.6C50.2787 29.344 50.3853 28.9173 50.428 28.32C50.5133 27.7227 50.5347 27.1467 50.492 26.592C50.4493 25.9947 50.3 25.6533 50.044 25.568C49.66 25.2693 49.276 25.2053 48.892 25.376C48.508 25.504 48.0173 25.7813 47.42 26.208C46.14 27.2747 44.9453 28.512 43.836 29.92C42.7693 31.2853 42.0227 32.9707 41.596 34.976C41.468 36.0427 41.5747 36.8533 41.916 37.408C42.3 37.92 42.8973 38.0693 43.708 37.856C44.5613 37.6 45.5853 36.896 46.78 35.744ZM81.0395 42.464C80.1008 42.3787 79.3115 42.1867 78.6715 41.888C78.0742 41.5467 77.5835 40.8853 77.1995 39.904C77.0288 39.2213 76.9435 38.5173 76.9435 37.792C76.9862 37.024 77.0502 36.2987 77.1355 35.616C77.2208 34.8907 77.2635 34.272 77.2635 33.76C77.2635 33.6747 77.2635 33.504 77.2635 33.248C77.2635 32.992 77.2635 32.7573 77.2635 32.544C77.1782 31.904 77.0075 31.52 76.7515 31.392C76.5382 31.2213 76.1542 31.2427 75.5995 31.456C74.7035 31.8827 73.7222 32.4587 72.6555 33.184C71.6315 33.8667 70.5435 34.6773 69.3915 35.616C68.2822 36.512 67.1302 37.472 65.9355 38.496C64.9968 39.52 64.2928 40.352 63.8235 40.992C63.3968 41.632 62.9488 41.952 62.4795 41.952C62.1382 42.1227 61.7755 42.08 61.3915 41.824C61.0075 41.568 60.6022 41.2693 60.1755 40.928C59.8768 40.5867 59.5142 40.16 59.0875 39.648C58.7035 39.0933 58.4688 38.7307 58.3835 38.56C58.3835 37.8773 58.4262 37.2587 58.5115 36.704C58.6395 36.1493 58.8102 35.5733 59.0235 34.976C59.2795 34.3787 59.5782 33.696 59.9195 32.928C60.0902 32.6293 60.2395 32.3307 60.3675 32.032C60.5382 31.6907 60.7302 31.328 60.9435 30.944C61.1142 30.3467 61.3488 29.664 61.6475 28.896C61.9888 28.128 62.3088 27.4027 62.6075 26.72C63.0768 25.6107 63.4395 24.6507 63.6955 23.84C63.9515 23.0293 64.1648 22.1547 64.3355 21.216C64.2928 21.1307 64.3142 21.0027 64.3995 20.832C64.4848 20.6613 64.6128 20.5547 64.7835 20.512H64.8475H64.9115C65.2102 20.2987 65.7648 20.2773 66.5755 20.448C67.4288 20.576 68.0688 20.8107 68.4955 21.152C69.3915 21.92 69.8182 22.9227 69.7755 24.16C69.7328 25.3973 69.0928 27.0187 67.8555 29.024C67.5568 29.7067 67.2368 30.3467 66.8955 30.944C66.5968 31.4987 66.4475 31.8827 66.4475 32.096C66.4475 32.096 66.6182 31.968 66.9595 31.712C67.3008 31.456 67.7062 31.1573 68.1755 30.816C68.6448 30.432 69.0502 30.1333 69.3915 29.92C69.6048 29.7067 70.0742 29.3227 70.7995 28.768C71.5248 28.1707 72.3142 27.552 73.1675 26.912C74.0208 26.272 74.7035 25.7813 75.2155 25.44C75.6848 25.0987 76.2822 24.7573 77.0075 24.416C77.7328 24.032 78.1808 23.84 78.3515 23.84C78.7782 23.84 79.2902 23.9893 79.8875 24.288C80.5275 24.5867 81.1035 24.9493 81.6155 25.376C82.1702 25.76 82.4902 26.1227 82.5755 26.464C82.5755 26.6347 82.5542 26.8693 82.5115 27.168C82.4688 27.424 82.4475 27.6587 82.4475 27.872C82.4048 28.5547 82.3835 29.3867 82.3835 30.368C82.4262 31.3067 82.4475 32.2667 82.4475 33.248C82.4475 34.1867 82.3622 35.04 82.1915 35.808C82.1915 35.808 82.2128 35.8507 82.2555 35.936C82.2982 35.9787 82.3408 36.064 82.3835 36.192C82.3408 36.2347 82.3195 36.32 82.3195 36.448C82.3622 36.5333 82.3835 36.576 82.3835 36.576C82.4688 36.8747 82.5542 37.1733 82.6395 37.472C82.7675 37.7707 82.9168 38.112 83.0875 38.496C83.2582 38.8373 83.4502 39.2853 83.6635 39.84C83.6208 40.3947 83.3008 40.9493 82.7035 41.504C82.1488 42.016 81.5942 42.336 81.0395 42.464ZM79.2465 58.592C78.0945 58.1227 77.1558 57.3547 76.4305 56.288C75.6625 55.2213 75.1505 54.0693 74.8945 52.832C74.6385 51.6373 74.6385 50.6133 74.8945 49.76C75.1078 49.1627 75.4278 48.7573 75.8545 48.544C76.2385 48.3307 76.5798 48.224 76.8785 48.224C77.0492 48.224 77.2838 48.3733 77.5825 48.672C77.8812 48.9707 78.1585 49.312 78.4145 49.696C78.6705 50.1227 78.7985 50.5067 78.7985 50.848C78.7985 51.2747 78.9478 51.68 79.2465 52.064C79.5025 52.4907 79.8438 52.832 80.2705 53.088C80.6545 53.344 81.0598 53.5147 81.4865 53.6C82.2545 53.6427 82.8518 53.408 83.2785 52.896C83.7478 52.384 84.2598 51.5307 84.8145 50.336C85.3692 49.4827 85.7532 48.7573 85.9665 48.16C86.1798 47.5627 86.3292 46.9867 86.4145 46.432C86.5425 45.92 86.6705 45.344 86.7985 44.704C87.0545 43.9787 87.2892 43.104 87.5025 42.08C87.7158 41.0133 87.9292 39.904 88.1425 38.752C88.3558 37.6 88.5478 36.5333 88.7185 35.552C88.8038 35.04 88.9318 34.4427 89.1025 33.76C89.3158 33.0347 89.5718 32.4587 89.8705 32.032C89.9985 31.3493 90.1905 30.4533 90.4465 29.344C90.7452 28.2347 91.0865 27.1253 91.4705 26.016C91.8545 24.864 92.2385 23.8827 92.6225 23.072C92.7932 22.7307 92.9425 22.432 93.0705 22.176C93.1985 21.8773 93.3692 21.5147 93.5825 21.088C94.0518 20.7467 94.6065 20.5973 95.2465 20.64C95.9292 20.6827 96.6118 20.7893 97.2945 20.96C98.5318 21.4293 99.4065 21.9413 99.9185 22.496C100.473 23.0507 100.772 23.584 100.815 24.096C100.9 24.608 100.793 25.0347 100.495 25.376C100.324 25.5467 100.111 25.6533 99.8545 25.696C99.6412 25.696 99.4065 25.6533 99.1505 25.568C99.1078 25.4827 99.0012 25.4187 98.8305 25.376C98.6598 25.2907 98.5745 25.248 98.5745 25.248C98.3185 25.248 98.0198 25.5467 97.6785 26.144C97.3798 26.7413 97.0598 27.488 96.7185 28.384C96.3772 29.2373 96.0572 30.112 95.7585 31.008C95.5025 31.8613 95.2892 32.5867 95.1185 33.184C95.1185 33.2267 95.0118 33.6533 94.7985 34.464C94.5852 35.232 94.3505 36.0213 94.0945 36.832C93.8812 37.6427 93.7532 38.176 93.7105 38.432C93.5398 39.2853 93.4118 39.9467 93.3265 40.416C93.2838 40.8853 93.1985 41.3547 93.0705 41.824C92.8998 42.72 92.6865 43.5733 92.4305 44.384C92.2172 45.2373 91.9398 46.0907 91.5985 46.944C91.3425 47.968 90.9798 49.0347 90.5105 50.144C90.0838 51.2533 89.5292 52.3627 88.8465 53.472C88.0358 54.9227 87.0972 56.0533 86.0305 56.864C85.0065 57.6747 84.1105 58.2293 83.3425 58.528C82.7878 58.7413 82.1265 58.848 81.3585 58.848C80.5478 58.8907 79.8438 58.8053 79.2465 58.592ZM97.1025 13.28C96.5478 12.8107 96.2278 12.256 96.1425 11.616C96.0572 10.9333 96.2278 10.2507 96.6545 9.568C96.8678 9.14133 97.0385 8.71466 97.1665 8.288C97.3372 7.86133 97.4438 7.43467 97.4865 7.008C98.4678 6.496 99.3852 6.19733 100.239 6.112C101.135 6.02666 101.839 6.21866 102.351 6.688C102.948 7.37067 103.183 8.30933 103.055 9.504C102.969 10.6987 102.5 11.808 101.647 12.832C100.921 13.6427 100.111 14.048 99.2145 14.048C98.3185 14.0053 97.6145 13.7493 97.1025 13.28ZM108.168 43.488C107.272 43.6587 106.589 43.616 106.12 43.36C105.693 43.0613 105.245 42.6987 104.776 42.272C104.093 41.9307 103.474 41.4613 102.92 40.864C102.365 40.224 101.938 39.5627 101.64 38.88C101.341 38.1973 101.213 37.664 101.256 37.28C101.384 35.7867 101.725 34.1653 102.28 32.416C102.877 30.6667 103.624 28.96 104.52 27.296C105.458 25.632 106.504 24.16 107.656 22.88C108.85 21.5573 110.13 20.5973 111.496 20C112.349 19.6587 113.266 19.5307 114.248 19.616C115.229 19.7013 115.89 20.1067 116.232 20.832C116.872 22.0693 116.722 22.8587 115.784 23.2C115.656 23.2 115.506 23.264 115.336 23.392C115.165 23.4773 115.08 23.6053 115.08 23.776C115.25 23.8613 115.72 23.8827 116.488 23.84C117.256 23.7547 118.024 23.6267 118.792 23.456C119.602 23.2427 120.136 23.0293 120.392 22.816C120.648 22.688 120.84 22.624 120.968 22.624C121.096 22.624 121.416 22.6667 121.928 22.752C122.653 22.9653 123.016 23.2213 123.016 23.52C123.016 23.6907 123.08 23.968 123.208 24.352C123.336 24.6933 123.485 24.864 123.656 24.864C123.954 24.9067 124.018 25.2053 123.848 25.76C123.72 26.3147 123.229 26.8907 122.376 27.488C121.565 28 121.053 28.3413 120.84 28.512C120.669 28.64 120.648 28.9387 120.776 29.408C121.117 30.2187 121.096 31.2 120.712 32.352C120.328 33.504 119.688 34.6987 118.792 35.936C117.896 37.1733 116.829 38.3467 115.592 39.456C114.397 40.5227 113.138 41.44 111.816 42.208C110.536 42.9333 109.32 43.36 108.168 43.488ZM108.36 38.112C108.53 38.112 108.829 38.0267 109.256 37.856C109.682 37.6427 110.024 37.472 110.28 37.344C110.45 37.1733 110.664 36.9813 110.92 36.768C111.218 36.512 111.453 36.3627 111.624 36.32C111.794 36.32 111.901 36.256 111.944 36.128C111.986 35.9573 112.136 35.6373 112.392 35.168C112.648 34.656 113.16 33.9093 113.928 32.928C114.781 31.9893 115.336 31.2427 115.592 30.688C115.848 30.0907 115.869 29.4507 115.656 28.768C115.613 28.5973 115.485 28.4907 115.272 28.448C115.101 28.4053 114.866 28.2987 114.568 28.128C114.141 28.128 113.842 28.2347 113.672 28.448C113.544 28.6187 113.245 28.512 112.776 28.128L111.752 26.848L110.664 27.936C109.981 28.6187 109.362 29.472 108.808 30.496C108.296 31.52 107.89 32.5653 107.592 33.632C107.293 34.6987 107.101 35.6373 107.016 36.448C106.973 37.088 107.08 37.5147 107.336 37.728C107.592 37.9413 107.933 38.0693 108.36 38.112ZM129.755 41.76C128.944 41.0347 128.24 40.288 127.643 39.52C127.046 38.7093 126.64 37.472 126.427 35.808C126.342 35.04 126.427 33.9733 126.683 32.608C126.939 31.2427 127.323 29.8133 127.835 28.32C128.347 26.784 128.902 25.376 129.499 24.096C130.096 22.816 130.694 21.8773 131.291 21.28C131.803 20.64 132.443 20.128 133.211 19.744C134.022 19.36 134.854 19.36 135.707 19.744C136.176 20.2987 136.411 21.0667 136.411 22.048C136.454 22.9867 136.219 23.8613 135.707 24.672C134.854 25.824 134.107 27.2747 133.467 29.024C132.87 30.7307 132.464 32.2667 132.251 33.632C131.952 34.6133 131.824 35.3813 131.867 35.936C131.91 36.448 132.208 36.768 132.763 36.896C133.574 37.1093 134.406 36.8747 135.259 36.192C136.155 35.5093 137.008 34.5067 137.819 33.184C138.672 31.8613 139.419 30.3467 140.059 28.64C140.315 28.0427 140.507 27.3387 140.635 26.528C140.806 25.7173 140.976 25.12 141.147 24.736C141.36 23.8827 141.723 23.2213 142.235 22.752C142.79 22.24 143.366 21.92 143.963 21.792C144.56 21.664 145.008 21.728 145.307 21.984C145.691 22.1547 146.096 22.432 146.523 22.816C146.95 23.2 147.12 23.8827 147.035 24.864C147.035 26.4427 146.694 27.7867 146.011 28.896C145.328 30.0053 144.752 31.1787 144.283 32.416C143.899 33.312 143.28 34.3573 142.427 35.552C141.574 36.7467 140.656 37.8347 139.675 38.816C138.736 39.7973 137.862 40.4587 137.051 40.8C135.856 41.568 134.64 42.0373 133.403 42.208C132.166 42.336 130.95 42.1867 129.755 41.76ZM150.883 43.04C150.584 43.04 150.179 42.8267 149.667 42.4C149.197 41.9733 148.92 41.5893 148.835 41.248C148.707 40.9067 148.707 40.416 148.835 39.776C149.005 39.0933 149.24 38.304 149.539 37.408C149.88 36 150.115 34.976 150.243 34.336C150.371 33.696 150.499 33.1413 150.627 32.672C150.755 32.2027 150.925 31.52 151.139 30.624C151.395 30.0693 151.587 29.536 151.715 29.024C151.885 28.4693 152.056 27.9147 152.227 27.36C152.44 26.8053 152.675 26.2507 152.931 25.696C153.229 24.5867 153.592 23.5413 154.019 22.56C154.488 21.536 154.936 20.6827 155.363 20C155.448 19.872 155.64 19.6373 155.939 19.296C156.237 18.9547 156.472 18.784 156.643 18.784C156.984 18.4427 157.453 18.336 158.051 18.464C158.648 18.5493 159.16 18.7627 159.587 19.104C160.099 19.6587 160.376 20.32 160.419 21.088C160.504 21.8133 160.205 22.8373 159.523 24.16C159.011 25.4827 158.52 26.528 158.051 27.296C157.624 28.0213 157.197 28.8747 156.771 29.856C157.24 29.1733 157.816 28.4693 158.499 27.744C159.181 27.0187 159.715 26.4427 160.099 26.016C160.653 25.4187 161.165 24.9493 161.635 24.608C162.147 24.224 162.829 23.7547 163.683 23.2C164.408 22.688 165.133 22.2187 165.859 21.792C166.627 21.3653 167.544 21.2373 168.611 21.408C169.037 21.3653 169.485 21.5787 169.955 22.048C170.467 22.5173 170.851 23.136 171.107 23.904C171.405 24.6293 171.405 25.4187 171.107 26.272C170.125 26.0587 169.251 26.1013 168.483 26.4C167.715 26.656 167.053 26.976 166.499 27.36C165.987 27.744 165.581 28.0427 165.283 28.256C164.856 28.512 164.365 28.8533 163.811 29.28C163.256 29.664 162.659 30.112 162.019 30.624C161.379 31.0933 160.696 31.6267 159.971 32.224C158.947 33.0773 158.179 33.824 157.667 34.464C157.155 35.104 156.749 35.7867 156.451 36.512C156.195 37.152 155.875 37.92 155.491 38.816C155.107 39.712 154.744 40.5227 154.403 41.248C154.061 41.9307 153.784 42.3573 153.571 42.528C153.357 42.9547 152.909 43.1893 152.227 43.232C151.587 43.2747 151.139 43.2107 150.883 43.04Z" fill="#2F80ED"/>
</svg>
