<svg width="766" height="661" viewBox="0 0 766 661" fill="none" xmlns="http://www.w3.org/2000/svg">
<path fill-rule="evenodd" clip-rule="evenodd" d="M641.151 474.117C640.609 475.106 639.529 475.674 638.408 475.561L624.965 474.21C623.899 474.103 623.366 474.049 622.873 473.862C622.797 473.834 622.723 473.803 622.649 473.77C622.168 473.553 621.753 473.214 620.924 472.536C619.944 471.736 619.454 471.336 618.879 471.107C618.791 471.072 618.702 471.04 618.611 471.012C618.021 470.825 617.389 470.825 616.124 470.825H613.762C612.444 470.825 611.784 470.825 611.17 470.62C610.555 470.416 610.027 470.021 608.971 469.232L601.512 463.654C601.462 463.617 601.437 463.598 601.413 463.58C600.448 462.835 599.875 461.691 599.856 460.472C599.856 460.442 599.856 460.411 599.856 460.348V458.864C599.856 458.047 600.359 457.316 601.121 457.023C602.563 456.471 602.838 454.551 601.61 453.615L600.126 452.485C598.567 451.298 598.54 448.961 600.071 447.738L602.162 446.067C602.566 445.745 602.768 445.583 602.94 445.407C603.552 444.781 603.941 443.972 604.048 443.104C604.079 442.859 604.079 442.6 604.079 442.084V434.018C604.079 431.142 604.079 429.705 603.285 428.641C602.49 427.576 601.112 427.167 598.356 426.349L594.843 425.305C593.279 424.841 592.497 424.609 591.892 424.129C591.618 423.912 591.374 423.659 591.165 423.379C590.705 422.759 590.497 421.97 590.082 420.392L590.039 420.227C589.765 419.188 589.628 418.668 589.372 418.216C589.184 417.884 588.949 417.581 588.675 417.315C588.302 416.954 587.833 416.691 586.895 416.165L586.15 415.747C585.658 415.471 585.412 415.334 585.2 415.174C584.388 414.565 583.837 413.671 583.661 412.671C583.614 412.41 583.602 412.128 583.578 411.565C583.535 410.56 583.514 410.057 583.584 409.642C583.857 408.025 585.09 406.738 586.694 406.396C587.107 406.308 587.609 406.308 588.615 406.308H591.422C592.606 406.308 593.198 406.308 593.755 406.142C593.809 406.127 593.862 406.11 593.914 406.092C594.465 405.903 594.946 405.559 595.91 404.871L602.835 399.933C604.48 398.76 605.302 398.174 605.746 397.312C606.19 396.45 606.19 395.44 606.19 393.42V388.918C606.19 386.953 606.19 385.97 605.767 385.124C605.344 384.279 604.557 383.69 602.983 382.513L598.865 379.432C597.817 378.647 597.293 378.255 596.928 377.74C596.757 377.497 596.613 377.237 596.5 376.963C596.258 376.38 596.205 375.727 596.101 374.422L595.986 372.993C595.913 372.078 595.876 371.621 595.762 371.23C595.397 369.977 594.444 368.981 593.209 368.561C592.823 368.429 592.368 368.372 591.458 368.259C591.134 368.218 590.972 368.198 590.814 368.165C590.317 368.062 589.845 367.865 589.422 367.585C589.287 367.496 589.159 367.396 588.902 367.194L587.224 365.879C586.553 365.353 586.217 365.091 585.953 364.778C585.567 364.322 585.288 363.784 585.136 363.206C585.033 362.81 585.011 362.384 584.967 361.533C584.903 360.298 584.871 359.681 585.001 359.127C585.192 358.317 585.63 357.587 586.255 357.038C586.683 356.662 587.243 356.4 588.362 355.875L588.954 355.599C589.694 355.252 590.064 355.078 590.388 354.838C590.555 354.714 590.712 354.577 590.858 354.429C591.14 354.141 591.363 353.798 591.808 353.112L592.315 352.33C593.755 350.111 594.474 349.002 594.445 347.767C594.416 346.531 593.644 345.457 592.101 343.309L586.178 335.063C585.726 334.434 585.019 334.039 584.247 333.982C582.443 333.851 581.316 331.968 582.053 330.316L583.436 327.215C583.69 326.645 583.817 326.36 583.895 326.083C584.215 324.951 584.021 323.736 583.365 322.76C583.204 322.522 582.995 322.291 582.576 321.828L579.632 318.577C577.388 316.101 576.267 314.862 574.772 314.69C573.276 314.517 571.902 315.467 569.153 317.367L567.545 318.479C566.672 319.082 566.235 319.384 565.741 319.561C565.247 319.738 564.719 319.782 563.661 319.87L558.707 320.283C558.631 320.29 558.594 320.293 558.557 320.297C557.78 320.376 557.044 320.68 556.439 321.173C556.41 321.196 556.381 321.221 556.323 321.27L555.822 321.693C554.198 323.065 554.092 325.532 555.593 327.037C556.272 327.719 556.654 328.642 556.654 329.604V330.086C556.654 330.394 556.654 330.548 556.643 330.697C556.583 331.495 556.286 332.257 555.789 332.884C555.696 333.001 555.591 333.114 555.382 333.341L554.016 334.823C553.236 335.668 552.846 336.091 552.361 336.385C551.876 336.678 551.32 336.827 550.21 337.126L545.727 338.33C544.268 338.722 542.717 338.186 541.811 336.978C540.411 335.111 541.07 332.43 543.176 331.424L544.772 330.663C545.145 330.485 545.331 330.396 545.503 330.292C546.077 329.943 546.554 329.456 546.89 328.875C546.991 328.701 547.076 328.512 547.245 328.136L547.963 326.545C548.181 326.062 548.29 325.821 548.36 325.601C548.863 324.023 548.341 322.299 547.048 321.264C546.868 321.12 546.643 320.979 546.195 320.698C545.901 320.514 545.754 320.422 545.624 320.325C544.703 319.638 544.122 318.589 544.029 317.444C544.015 317.282 544.015 317.108 544.015 316.762V316.104C544.015 315.581 544.015 315.32 544.048 315.065C544.1 314.663 544.213 314.271 544.383 313.902C544.49 313.669 544.629 313.448 544.907 313.005L546.525 310.424C547.148 309.431 547.186 308.178 546.623 307.149C545.916 305.856 546.17 304.25 547.241 303.239L556.129 294.85C557.261 293.781 557.827 293.247 558.15 292.559C558.473 291.871 558.522 291.094 558.621 289.54L559.123 281.652C559.261 279.486 559.33 278.403 559.837 277.565C560.101 277.129 560.445 276.748 560.851 276.442C561.634 275.852 562.705 275.673 564.845 275.316C566.097 275.107 566.724 275.003 567.269 274.726C567.556 274.581 567.823 274.402 568.067 274.193C568.531 273.795 568.867 273.256 569.54 272.179L582.772 250.978C582.929 250.726 583.048 250.451 583.124 250.164L583.297 249.512C583.797 247.628 582.106 245.892 580.209 246.342C578.589 246.727 577.034 245.499 577.034 243.834V243.002C577.034 242.041 577.462 241.13 578.2 240.516L584.968 234.883C585.295 234.61 585.678 234.411 586.09 234.299L586.658 234.145C588.077 233.761 589.513 234.705 589.721 236.16C589.899 237.395 590.975 238.299 592.222 238.26L597.231 238.101C599.045 238.044 599.953 238.015 600.738 237.622C601.523 237.23 602.09 236.521 603.225 235.104L604.409 233.624C605.457 232.314 605.981 231.659 606.201 230.874C606.42 230.089 606.312 229.257 606.096 227.594L605.592 223.717C605.539 223.31 605.513 223.107 605.466 222.908C605.419 222.708 605.352 222.515 605.217 222.127L603.19 216.281C602.762 215.047 602.548 214.429 602.538 213.788C602.528 213.146 602.723 212.522 603.112 211.275L605.278 204.341C605.553 203.459 605.691 203.018 605.725 202.561C605.759 202.105 605.689 201.648 605.548 200.735L603.906 190.106C603.813 189.501 603.766 189.199 603.766 188.894C603.766 188.589 603.812 188.287 603.904 187.682L609.309 152.139C609.5 150.882 609.596 150.253 609.874 149.693C610.152 149.133 610.596 148.677 611.482 147.765L619.234 139.792C620.081 138.922 620.504 138.486 620.778 137.954C621.051 137.422 621.158 136.825 621.373 135.629L622.142 131.344C622.739 128.021 623.037 126.359 622.247 125.063C621.457 123.767 619.843 123.272 616.615 122.282L611.538 120.724C610.62 120.442 610.162 120.302 609.687 120.273C609.213 120.243 608.74 120.327 607.796 120.494L598.461 122.148C596.234 122.542 595.12 122.739 594.11 122.371C593.099 122.002 592.375 121.134 590.925 119.397L589.992 118.28C589.64 117.858 589.464 117.648 589.269 117.468C588.79 117.029 588.211 116.712 587.582 116.547C587.325 116.479 587.053 116.445 586.508 116.377L585.338 116.231C583.922 116.053 582.536 116.728 581.801 117.951C581.231 118.9 580.256 119.535 579.157 119.671L576.261 120.031C574.52 120.247 573.65 120.355 572.845 120.115C572.702 120.072 572.562 120.021 572.424 119.963C571.651 119.634 571.051 118.994 569.85 117.716L569.062 116.878C568.618 116.405 568.396 116.169 568.154 115.98C567.471 115.446 566.633 115.149 565.766 115.133C565.459 115.127 565.138 115.171 564.496 115.258L561.169 115.708C560.219 115.837 559.539 116.692 559.628 117.647C559.732 118.764 558.794 119.701 557.677 119.594L554.428 119.285C554.216 119.265 554.11 119.254 554.008 119.239C553.031 119.096 552.142 118.596 551.512 117.835C551.447 117.757 551.383 117.671 551.255 117.5L540.336 102.868C539.723 102.047 539.417 101.636 539.022 101.318C538.627 101 538.16 100.789 537.226 100.366L535.039 99.3744C533.242 98.5603 532.344 98.1533 531.396 98.1914C530.448 98.2296 529.585 98.7076 527.86 99.6635L526.48 100.428C525.771 100.821 525.416 101.017 525.033 101.138C524.649 101.259 524.246 101.302 523.44 101.386L514.731 102.304C513.758 102.406 513.272 102.457 512.811 102.398C512.169 102.317 511.557 102.081 511.027 101.711C510.646 101.445 510.319 101.08 509.667 100.352L509.416 100.071C508.447 98.989 507.963 98.4481 507.43 98.1331C506.325 97.4808 504.974 97.398 503.798 97.9105C503.23 98.158 502.684 98.6357 501.59 99.5911C501.181 99.949 500.976 100.128 500.755 100.274C500.302 100.575 499.791 100.781 499.256 100.878C498.995 100.925 498.723 100.937 498.18 100.963L496.613 101.036C494.712 101.124 493.761 101.169 492.917 100.807C492.073 100.446 491.449 99.7274 490.201 98.29L484.95 92.244C484.282 91.4751 483.948 91.0906 483.534 90.804C483.12 90.5174 482.642 90.3406 481.687 89.987L468.243 85.0109C466.477 84.3572 465.594 84.0304 464.962 83.3778C464.33 82.7253 464.031 81.8324 463.434 80.0466L461.322 73.7338C461.195 73.3553 461.13 72.9588 461.13 72.5597V69.9477C461.13 66.7732 456.883 65.7129 455.391 68.5151C455.235 68.8084 455.032 69.0742 454.79 69.3019L451.424 72.4709C450.322 73.5079 449.772 74.0264 449.088 74.3073C448.405 74.5881 447.648 74.6066 446.136 74.6436L436.772 74.8728C436.525 74.8788 436.402 74.8819 436.282 74.8776C435.547 74.8514 434.834 74.6232 434.22 74.218C434.12 74.1518 434.021 74.0779 433.824 73.9299L433.188 73.4528C431.854 72.452 431.359 70.6797 431.981 69.1324C432.604 67.5828 432.107 65.8081 430.769 64.8081L430.689 64.7483C429.539 63.8887 428.97 62.4561 429.215 61.0417L430.005 56.4932C430.203 55.3534 430.302 54.7836 430.248 54.2391C430.187 53.633 429.989 53.0487 429.668 52.531C429.379 52.0659 428.954 51.6741 428.103 50.8906C427.381 50.2262 427.02 49.894 426.609 49.6642C426.151 49.4082 425.647 49.2449 425.126 49.1835C424.658 49.1283 424.171 49.1857 423.196 49.3004L420.04 49.6719L412.532 50.1413C412.202 50.162 412.037 50.1723 411.892 50.1708C410.151 50.153 408.621 49.0112 408.109 47.3471C408.066 47.2081 408.029 47.0471 407.955 46.7249C407.936 46.6399 407.926 46.5973 407.916 46.5555C407.793 46.0689 407.579 45.6098 407.287 45.2022C407.261 45.1671 407.235 45.1322 407.183 45.0624L405.302 42.5585C403.923 40.723 403.234 39.8053 402.228 39.3863C401.222 38.9674 400.085 39.1244 397.811 39.4385L397.188 39.5246C394.806 39.8537 393.614 40.0182 392.575 39.559C391.536 39.0998 390.856 38.1083 389.496 36.1252L388.767 35.0629C388.248 34.3061 387.989 33.9277 387.822 33.5044C387.656 33.081 387.588 32.6272 387.452 31.7195L386.974 28.5197C386.855 27.7195 386.795 27.3194 386.66 26.9454C386.575 26.711 386.469 26.4851 386.342 26.2706C386.14 25.9281 385.87 25.627 385.33 25.0248L385.058 24.7227C383.568 23.0621 382.823 22.2319 381.94 21.8855C381.1 21.556 380.173 21.5202 379.31 21.7839C378.403 22.0611 377.597 22.8315 375.983 24.3721C374.802 25.499 374.212 26.0624 373.526 26.3483C372.87 26.6212 372.154 26.7148 371.45 26.6192C370.713 26.5192 369.998 26.1262 368.568 25.3402L366.139 24.005C365.873 23.8589 365.74 23.7858 365.613 23.703C365.486 23.6202 365.366 23.5279 365.125 23.3434L360.354 19.6858C358.586 18.3307 357.702 17.6532 357.29 16.6959C357.221 16.5363 357.163 16.3725 357.115 16.2054C356.83 15.2026 357.088 14.1191 357.603 11.9521C357.892 10.7347 358.036 10.1261 357.993 9.51547C357.986 9.41229 357.975 9.30943 357.959 9.20712C357.869 8.60169 357.596 8.03886 357.05 6.9132L356.576 5.9373C354.874 2.42917 354.023 0.675103 352.406 0.147938C350.79 -0.379227 349.069 0.53556 345.625 2.36513L337.424 6.72274C336.938 6.98065 336.695 7.10961 336.438 7.20397C336.181 7.29833 335.912 7.35692 335.375 7.4741L326.534 9.40328C325.871 9.54787 325.54 9.62017 325.227 9.74637C324.914 9.87256 324.625 10.0503 324.047 10.4057L318.665 13.7167C317.39 14.5015 316.752 14.8939 316.305 15.4732C315.858 16.0526 315.64 16.769 315.204 18.2017L312.997 25.4545C312.782 26.1601 312.675 26.5129 312.634 26.8772C312.593 27.2416 312.619 27.6095 312.67 28.3452L313.886 45.6107C313.93 46.2336 313.952 46.545 313.926 46.8549C313.899 47.1647 313.825 47.468 313.677 48.0745L310.475 61.1574C310.293 61.8984 310.202 62.269 310.045 62.6138C309.887 62.9586 309.666 63.2695 309.224 63.8913L301.49 74.768C301.062 75.3699 300.848 75.6708 300.584 75.9264C300.321 76.1819 300.013 76.3863 299.398 76.7951L289.094 83.6422C288.538 84.0122 288.259 84.1972 287.955 84.333C287.652 84.4688 287.328 84.553 286.681 84.7214L272.686 88.3629C272.254 88.4755 272.038 88.5317 271.829 88.6115C271.621 88.6913 271.423 88.794 271.026 88.9993L261.638 93.8549L253.597 99.4776C252.368 100.337 251.753 100.767 251.34 101.373C250.927 101.979 250.752 102.708 250.402 104.166L249.74 106.925C249.608 107.475 249.542 107.75 249.44 108.01C249.307 108.348 249.129 108.666 248.91 108.957C248.742 109.179 248.542 109.379 248.141 109.779L246.911 111.008C246.784 111.134 246.721 111.198 246.669 111.254C245.296 112.735 245.243 115.009 246.546 116.553C246.595 116.611 246.655 116.677 246.776 116.81L247.19 117.264C247.452 117.552 247.791 117.76 248.166 117.864C250.057 118.387 250.223 121.003 248.414 121.763L247.645 122.086C247.382 122.196 247.141 122.354 246.934 122.551L242.049 127.193C240.969 128.22 240.429 128.734 239.758 129.017C239.086 129.301 238.342 129.33 236.852 129.389L233.627 129.515C232.193 129.572 231.477 129.6 230.807 129.387C230.138 129.173 229.569 128.736 228.433 127.861L227.56 127.189C226.864 126.653 226.516 126.385 226.122 126.2C225.727 126.015 225.299 125.918 224.442 125.725L207.549 121.909L194.673 120.65C193.803 120.565 193.001 121.13 192.789 121.979C192.593 122.764 191.887 123.315 191.077 123.315H190.912C189.82 123.315 188.936 122.43 188.936 121.339V119.747C188.936 118.672 188.451 117.655 187.618 116.978L185.849 115.541C184.914 114.78 184.446 114.4 184.12 113.927C183.842 113.523 183.641 113.071 183.526 112.595C183.391 112.036 183.421 111.434 183.48 110.23L183.61 107.593C183.644 106.907 184.044 106.292 184.657 105.983C185.336 105.642 185.748 104.929 185.704 104.17L185.622 102.76C185.62 102.716 185.618 102.694 185.617 102.675C185.491 100.813 184.095 99.2858 182.252 98.994C182.232 98.991 182.211 98.9878 182.167 98.9814L177.991 98.3617C177.782 98.3306 177.677 98.3151 177.576 98.3054C176.551 98.2059 175.527 98.5057 174.718 99.1423C174.638 99.2048 174.559 99.2743 174.399 99.4131C174.269 99.5267 174.204 99.5835 174.138 99.636C173.474 100.168 172.657 100.474 171.807 100.509C171.723 100.513 171.636 100.513 171.463 100.513H166.97C165.811 100.513 164.77 99.8066 164.342 98.7302C163.927 97.6863 162.933 96.9872 161.81 96.9489L153.116 96.6528C152.956 96.6528 152.849 96.8195 152.917 96.965L154.953 101.331C155.134 101.72 155.238 102.14 155.258 102.568L155.54 108.605C155.556 108.943 155.564 109.112 155.586 109.279C155.608 109.446 155.644 109.611 155.717 109.942L157.705 119.026C157.866 119.762 157.946 120.13 158.093 120.475C158.239 120.819 158.449 121.133 158.867 121.759L167.341 134.446C167.952 135.361 168.257 135.819 168.427 136.335C168.598 136.85 168.624 137.4 168.678 138.498L169.896 163.369C169.927 164 169.942 164.316 170.005 164.621C170.059 164.88 170.138 165.133 170.242 165.376C170.364 165.663 170.531 165.931 170.866 166.467L171.258 167.094C171.829 168.01 172.115 168.467 172.267 168.929C172.614 169.989 172.503 171.145 171.961 172.119C171.724 172.544 171.357 172.939 170.621 173.729C170.17 174.214 169.944 174.456 169.694 174.652C169.122 175.098 168.439 175.381 167.719 175.469C167.404 175.508 167.073 175.496 166.411 175.471L161.454 175.29C161.229 175.282 161.117 175.278 161.012 175.268C159.832 175.162 158.76 174.539 158.084 173.567C158.024 173.48 157.965 173.384 157.847 173.193C157.7 172.956 157.626 172.837 157.552 172.732C156.715 171.556 155.31 170.922 153.874 171.073C153.747 171.086 153.609 171.11 153.333 171.157L145.634 172.468C144.582 172.648 143.655 173.264 143.082 174.164C142.164 175.607 140.391 176.253 138.761 175.739L133.63 174.122C131.143 173.339 129.9 172.947 128.747 173.274C128.59 173.319 128.437 173.373 128.286 173.436C127.182 173.901 126.457 174.985 125.007 177.152L124.904 177.306C124.186 178.378 123.827 178.915 123.336 179.304C123.167 179.438 122.987 179.559 122.798 179.664C122.251 179.969 121.618 180.095 120.352 180.349C118.58 180.704 117.694 180.881 116.863 180.693C116.577 180.628 116.299 180.533 116.035 180.407C115.264 180.043 114.676 179.357 113.499 177.985L112.509 176.83C112.267 176.548 112.147 176.407 112.04 176.256C111.933 176.105 111.84 175.944 111.654 175.623L106.755 167.139L101.749 160.645C100.754 159.354 100.256 158.708 99.5677 158.312C98.8797 157.916 98.0711 157.809 96.4538 157.597L87.0767 156.367C86.7331 156.322 86.5612 156.299 86.3883 156.292C86.2154 156.284 86.0422 156.291 85.6959 156.306L82.5435 156.44C81.3484 156.491 80.7509 156.517 80.2358 156.683C79.2773 156.991 78.4704 157.65 77.9763 158.527C77.7108 158.999 77.5664 159.579 77.2775 160.74C76.9766 161.949 76.8262 162.553 76.5474 163.038C76.0285 163.941 75.178 164.606 74.1768 164.891C73.639 165.045 73.0161 165.045 71.7702 165.045H64.3274C63.4674 165.045 62.7268 165.651 62.5573 166.494C62.3401 167.575 61.2134 168.21 60.176 167.837L54.8615 165.925C54.2664 165.711 53.9688 165.604 53.6616 165.545C53.4599 165.507 53.2556 165.484 53.0504 165.476C52.7377 165.465 52.4238 165.503 51.796 165.58L41.7794 166.795L29.1407 169.593L21.7469 172.3C20.194 172.869 19.4175 173.153 18.8278 173.7C18.2381 174.247 17.8964 175 17.2129 176.506L16.638 177.773C15.8789 179.445 15.4994 180.282 15.5089 181.169C15.5184 182.057 15.9157 182.885 16.7104 184.541L16.9259 184.99C18.076 187.386 18.6511 188.584 19.727 189.203C20.8028 189.821 22.1277 189.715 24.7773 189.503L26.4997 189.365C27.2393 189.305 27.6092 189.276 27.9646 189.18C28.0237 189.164 28.0825 189.147 28.1408 189.128C28.4915 189.016 28.8183 188.84 29.4719 188.489L29.982 188.215C30.9448 187.698 31.4262 187.439 31.9357 187.318C32.4159 187.205 32.913 187.181 33.402 187.248C33.9207 187.319 34.4248 187.53 35.4328 187.952L37.865 188.971C38.7485 189.341 39.3235 190.206 39.3235 191.164C39.3235 192.574 38.1026 193.674 36.6998 193.528L29.5661 192.784C29.5332 192.78 29.5167 192.779 29.5003 192.777C29.2611 192.754 29.0203 192.753 28.7808 192.773C28.7643 192.774 28.7479 192.776 28.7149 192.779L27.7656 192.867C26.3093 193.002 25.1396 194.126 24.9453 195.575C24.7334 197.156 25.7412 198.645 27.2878 199.035L27.9646 199.206C28.5029 199.342 29.064 199.362 29.6107 199.265L33.6127 198.553C33.881 198.506 34.0151 198.482 34.1492 198.467C34.5501 198.424 34.9554 198.441 35.3512 198.518C35.4835 198.544 35.6152 198.579 35.8785 198.65L37.3902 199.053C38.9234 199.462 39.9543 200.897 39.8529 202.48C39.7468 204.136 38.4375 205.46 36.7833 205.585L36.4839 205.608C35.6015 205.675 34.7247 205.421 34.0148 204.892L33.6576 204.627C33.4194 204.449 33.3003 204.361 33.1783 204.283C32.5849 203.905 31.9022 203.69 31.1991 203.66C31.0546 203.654 30.9062 203.658 30.6095 203.667L22.8337 203.898C22.0537 203.921 21.6637 203.933 21.2911 204.016C20.9471 204.093 20.6147 204.215 20.3026 204.379C19.9647 204.557 19.6599 204.8 19.0504 205.287L18.0934 206.052C17.5115 206.518 17.1173 207.177 16.9837 207.91C16.7011 209.46 17.6306 210.974 19.1406 211.424L20.0062 211.681L24.2545 212.935C26.5225 213.605 27.6565 213.939 28.3987 214.728C28.6053 214.948 28.7864 215.19 28.9385 215.451C29.4852 216.386 29.4852 217.568 29.4852 219.933C29.4852 220.796 29.4852 221.228 29.575 221.644C29.6004 221.763 29.6313 221.88 29.6674 221.995C29.7945 222.402 30.0072 222.777 30.4326 223.528L32.3072 226.839C33.0151 228.088 33.369 228.713 33.8854 229.163C34.1649 229.406 34.477 229.61 34.8125 229.767C35.4323 230.058 36.147 230.13 37.5762 230.273C38.9959 230.415 39.7058 230.486 40.3673 230.326C40.7255 230.24 41.0699 230.104 41.3909 229.923C41.9838 229.589 42.4546 229.053 43.396 227.981L44.2876 226.965C44.8976 226.271 45.2026 225.923 45.5645 225.661C45.9335 225.393 46.3455 225.19 46.7828 225.062C47.2117 224.935 47.673 224.906 48.5956 224.847L48.6777 224.841C49.6667 224.778 50.1611 224.747 50.628 224.828C51.1935 224.926 51.7313 225.145 52.2048 225.469C52.5956 225.737 52.9276 226.105 53.5915 226.841C53.9957 227.288 54.1978 227.512 54.4268 227.701C54.7044 227.929 55.0116 228.119 55.3399 228.266C55.6108 228.386 55.9014 228.467 56.4827 228.629L66.4197 231.393C67.0729 231.575 67.6683 231.922 68.1484 232.401L70.5657 234.811C71.97 236.211 71.1081 238.613 69.1341 238.801C67.8116 238.927 66.8585 240.127 67.0345 241.443L67.1314 242.169C67.3021 243.446 68.2576 244.478 69.5179 244.746L70.4838 244.951C70.6672 244.99 70.7589 245.009 70.848 245.024C71.802 245.182 72.781 244.99 73.6038 244.482C73.6806 244.434 73.7581 244.381 73.9131 244.276L79.2348 240.648C79.4771 240.483 79.5982 240.401 79.7241 240.328C79.9652 240.188 80.2202 240.074 80.485 239.987C80.6233 239.942 80.7655 239.906 81.05 239.835C81.9605 239.609 82.4158 239.495 82.8548 239.484C83.6985 239.463 84.5274 239.709 85.2227 240.188C85.5846 240.436 85.9042 240.78 86.5434 241.467L86.9464 241.9C87.6902 242.699 88.0621 243.099 88.3093 243.566C88.4772 243.883 88.6017 244.221 88.6793 244.571C88.7937 245.087 88.7693 245.633 88.7207 246.723L88.6003 249.426C88.5312 250.977 89.4305 252.409 90.858 253.02C92.3735 253.669 94.1354 253.246 95.1909 251.979L95.5636 251.532C95.7135 251.352 95.7884 251.263 95.8647 251.181C96.5684 250.427 97.5361 249.973 98.5659 249.916C98.6776 249.909 98.7946 249.909 99.0287 249.909H99.0954C99.3768 249.909 99.5175 249.909 99.6525 249.919C100.583 249.982 101.462 250.368 102.138 251.01C102.236 251.103 102.331 251.207 102.522 251.414L102.852 251.774C103.492 252.47 103.812 252.819 104.18 253.073C104.801 253.503 105.532 253.748 106.287 253.78C106.733 253.799 107.198 253.714 108.129 253.545L114.135 252.452C114.737 252.342 115.037 252.287 115.33 252.277C116.114 252.251 116.888 252.455 117.557 252.865C117.806 253.018 118.041 253.214 118.51 253.606C119.066 254.071 119.344 254.303 119.565 254.563C120.159 255.261 120.494 256.141 120.517 257.057C120.525 257.398 120.472 257.757 120.367 258.474L119.378 265.206C119.233 266.189 119.161 266.68 119.208 267.165C119.224 267.332 119.251 267.497 119.288 267.661C119.395 268.136 119.618 268.58 120.063 269.468L120.179 269.697C120.984 271.303 121.387 272.106 122.026 272.639C122.39 272.943 122.805 273.179 123.252 273.338C124.037 273.616 124.933 273.553 126.725 273.428L126.885 273.417C128.819 273.282 129.786 273.214 130.605 273.523C131.194 273.745 131.722 274.103 132.146 274.568C132.736 275.215 133.031 276.138 133.621 277.985L133.767 278.443C134.092 279.459 134.254 279.967 134.517 280.389C134.945 281.077 135.572 281.619 136.314 281.943C136.77 282.142 137.296 282.229 138.348 282.402C139.208 282.545 139.638 282.616 140.026 282.766C140.657 283.012 141.215 283.413 141.648 283.933C141.914 284.252 142.119 284.637 142.527 285.408L142.64 285.62C143.241 286.753 143.542 287.319 143.655 287.912C143.767 288.501 143.745 289.109 143.591 289.688C143.436 290.272 143.096 290.815 142.416 291.902L139.953 295.838C139.513 296.541 139.293 296.893 139.15 297.279C139.008 297.666 138.946 298.076 138.823 298.897L138.643 300.102C138.339 302.135 138.186 303.151 138.51 304.082C138.833 305.013 139.583 305.716 141.082 307.122L146.954 312.629C148.089 313.694 148.657 314.227 148.982 314.913C149.307 315.6 149.359 316.376 149.463 317.93L149.727 321.877C149.84 323.566 149.897 324.411 150.271 325.143C150.645 325.875 151.296 326.416 152.598 327.497L157.42 331.502C157.902 331.903 158.144 332.104 158.412 332.263C158.681 332.423 158.972 332.54 159.555 332.774L168.914 336.525L178.677 341.388C179.186 341.642 179.612 342.036 179.905 342.524C181.098 344.513 179.665 347.043 177.346 347.043H174.256C174.084 347.043 173.998 347.043 173.912 347.04C173.406 347.018 172.908 346.901 172.446 346.693C172.368 346.658 172.291 346.62 172.137 346.542L170.143 345.544C169.43 345.187 169.073 345.009 168.742 344.909C167.251 344.461 165.636 344.919 164.602 346.082C164.372 346.341 164.162 346.679 163.743 347.357L163.609 347.574C163.344 348.001 163.211 348.215 163.116 348.415C162.419 349.883 162.678 351.626 163.773 352.827C163.922 352.991 164.111 353.157 164.489 353.489C164.877 353.831 165.072 354.002 165.257 354.131C166.621 355.08 168.43 355.087 169.802 354.148C169.989 354.021 170.184 353.851 170.575 353.513L171.204 352.968C171.645 352.587 171.865 352.397 172.103 352.244C172.588 351.931 173.134 351.728 173.705 351.647C173.985 351.607 174.276 351.607 174.859 351.607H178.256C179.89 351.607 180.707 351.607 181.442 351.911C182.177 352.215 182.755 352.793 183.911 353.948L186.138 356.173C187.174 357.208 187.692 357.725 187.991 358.376C188.291 359.026 188.347 359.756 188.46 361.216L188.76 365.103C188.868 366.507 188.21 367.861 187.039 368.642C185.198 369.87 182.705 369.319 181.554 367.43L180.156 365.137C180.138 365.107 180.128 365.091 180.119 365.076C179.915 364.749 179.665 364.452 179.377 364.196C179.364 364.185 179.35 364.173 179.323 364.149L178.034 363.026C176.262 361.481 173.484 362.335 172.886 364.609C172.605 365.677 172.901 366.815 173.667 367.612L178.325 372.456C179.574 373.756 180.199 374.406 180.487 375.229C180.775 376.053 180.691 376.95 180.523 378.745L180.311 381.024C180.071 383.591 179.951 384.874 180.523 385.938C181.095 387.002 182.232 387.61 184.506 388.825L193.812 393.796C194.36 394.089 194.634 394.236 194.882 394.422C195.129 394.608 195.345 394.831 195.779 395.277L205.709 405.493C206.221 406.02 206.533 406.709 206.591 407.441L207.142 414.392C207.334 416.803 203.974 417.583 203.084 415.334C203.016 415.163 202.926 415.001 202.817 414.853L194.378 403.486C194.12 403.139 193.991 402.966 193.845 402.808C193.699 402.65 193.536 402.508 193.211 402.224L190.673 400.012C190.39 399.766 190.249 399.643 190.112 399.543C188.936 398.682 187.385 398.529 186.064 399.143C185.909 399.215 185.747 399.308 185.422 399.494C185.175 399.635 185.051 399.706 184.939 399.781C183.988 400.413 183.354 401.423 183.195 402.554C183.176 402.687 183.166 402.829 183.145 403.113L181.568 424.891L179.909 449.456C179.849 450.345 180.116 451.225 180.659 451.931L183.382 455.47C184.55 456.987 183.178 459.133 181.311 458.71C180.133 458.443 178.982 459.25 178.832 460.449L176.297 480.655L173.225 502.476C173.181 502.787 173.159 502.942 173.125 503.095C173.091 503.248 173.045 503.398 172.954 503.699L166.818 523.776L164.396 536.454C164.201 537.478 164.103 537.99 163.881 538.455C163.659 538.92 163.322 539.318 162.65 540.115L155.572 548.494C155.27 548.851 155.12 549.029 154.952 549.187C154.629 549.491 154.258 549.738 153.853 549.92C153.644 550.015 153.421 550.086 152.976 550.227L150.656 550.966C148.206 551.746 147.205 554.67 148.663 556.787C149.259 557.653 150.185 558.236 151.224 558.399L160.977 559.929C164.104 560.42 165.667 560.665 166.62 561.742C166.623 561.746 166.626 561.749 166.629 561.753C167.579 562.833 167.628 564.415 167.725 567.578L167.814 570.491C167.846 571.535 167.32 572.517 166.433 573.069C165.574 573.603 165.051 574.544 165.051 575.556V576.261C165.051 577.548 165.982 578.647 167.251 578.858C168.441 579.056 169.613 578.421 170.096 577.317L171.299 574.567C171.551 573.993 172.167 573.67 172.783 573.791C173.22 573.877 173.585 574.175 173.758 574.585L174.594 576.575C174.761 576.972 174.844 577.171 174.946 577.356C175.202 577.821 175.549 578.23 175.965 578.56C176.13 578.692 176.312 578.807 176.676 579.038L183.815 583.563C184.789 584.18 185.276 584.489 185.822 584.647C186.368 584.806 186.945 584.806 188.098 584.806H197.98C199.921 584.806 200.891 584.806 201.729 585.22C202.567 585.634 203.156 586.405 204.335 587.946L208.835 593.831C210.424 595.909 211.219 596.949 212.38 597.339C213.54 597.728 214.801 597.379 217.323 596.681L222.616 595.217C223.686 594.921 224.221 594.773 224.77 594.774C225.318 594.775 225.852 594.926 226.921 595.228L236.145 597.829C237.513 598.215 238.457 599.462 238.457 600.883C238.457 602.504 239.679 603.864 241.291 604.037L260.574 606.109C260.933 606.148 261.113 606.167 261.294 606.17C261.474 606.173 261.654 606.16 262.015 606.134L275.221 605.164C275.488 605.145 275.622 605.135 275.729 605.121C278.018 604.828 279.586 602.664 279.149 600.397C279.129 600.291 279.096 600.161 279.031 599.901C278.95 599.575 278.909 599.411 278.887 599.29C278.399 596.65 280.601 594.288 283.269 594.589C283.392 594.603 283.557 594.632 283.888 594.69L291.497 596.027L299.478 597.047C300.482 597.176 300.984 597.24 301.436 597.414C301.939 597.609 302.397 597.902 302.784 598.278C303.132 598.616 303.4 599.045 303.936 599.904C304.603 600.972 304.937 601.507 305.381 601.896C305.874 602.328 306.466 602.632 307.105 602.782C307.68 602.917 308.309 602.877 309.566 602.797L313.704 602.536C314.172 602.507 314.406 602.492 314.622 602.502C315.895 602.559 317.065 603.219 317.771 604.28C317.891 604.46 318 604.668 318.216 605.084L319.529 607.609C320.41 609.304 322.707 609.608 324 608.202C324.733 607.403 325.867 607.11 326.896 607.452L334.799 610.078C335.264 610.232 335.496 610.309 335.7 610.403C336.895 610.956 337.742 612.061 337.964 613.359C338.002 613.58 338.016 613.824 338.045 614.313C338.069 614.735 338.081 614.946 338.112 615.141C338.292 616.282 338.957 617.29 339.935 617.905C340.102 618.01 340.291 618.104 340.67 618.293L346.568 621.231C347.25 621.571 347.591 621.741 347.885 621.962C348.332 622.299 348.704 622.727 348.976 623.217C349.154 623.539 349.275 623.9 349.517 624.623C349.925 625.844 350.13 626.455 350.468 626.935C350.984 627.667 351.73 628.204 352.588 628.461C353.15 628.63 353.794 628.63 355.082 628.63H357.284C358.687 628.63 359.932 627.733 360.377 626.403C360.781 625.197 361.849 624.336 363.113 624.196L367.631 623.697C369.06 623.539 369.774 623.46 370.458 623.627C371.142 623.793 371.741 624.191 372.938 624.987L376.137 627.113C377.014 627.696 377.453 627.988 377.945 628.155C378.438 628.323 378.964 628.359 380.015 628.432L384.805 628.762C386.423 628.874 387.232 628.93 387.982 628.681C388.731 628.432 389.346 627.903 390.575 626.845L399.102 619.506C399.907 618.813 400.31 618.466 400.784 618.238C401.257 618.01 401.779 617.91 402.823 617.711L407.487 616.823C407.896 616.745 408.291 616.602 408.655 616.4C410.198 615.546 410.981 613.768 410.571 612.053L407.947 601.076C407.847 600.654 407.796 600.443 407.769 600.229C407.742 600.014 407.738 599.798 407.73 599.364L407.435 583.49C407.418 582.573 407.41 582.115 407.504 581.67C407.597 581.226 407.79 580.81 408.176 579.978L413.409 568.686C413.736 567.98 413.899 567.627 414.126 567.314C414.353 567.001 414.637 566.736 415.205 566.205L423.214 558.72C424.076 557.914 424.508 557.511 425.029 557.251C425.55 556.991 426.131 556.889 427.295 556.685L429.007 556.385C429.962 556.218 430.44 556.134 430.88 555.942C431.32 555.749 431.705 555.455 432.476 554.867L453.098 539.142C454.652 537.957 455.429 537.364 456.264 537.17C457.077 536.98 457.93 537.049 458.702 537.369C459.494 537.697 460.165 538.408 461.506 539.83C462.131 540.492 462.443 540.823 462.809 541.071C463.167 541.313 463.562 541.496 463.979 541.612C464.404 541.73 464.859 541.753 465.768 541.8L475.533 542.302C476.229 542.337 476.577 542.355 476.921 542.313C477.266 542.271 477.599 542.17 478.266 541.967L480.098 541.412C481.812 540.891 482.669 540.631 483.467 540.712C484.234 540.79 484.962 541.088 485.564 541.57C486.19 542.071 486.619 542.857 487.478 544.429C488.1 545.568 488.411 546.138 488.85 546.562C489.273 546.971 489.782 547.281 490.339 547.471C490.917 547.668 491.566 547.684 492.863 547.717L514.606 548.268C515.78 548.298 516.367 548.313 516.927 548.163C517.486 548.013 517.987 547.706 518.988 547.093L519.939 546.51C520.489 546.173 520.764 546.005 521.056 545.884C521.4 545.742 521.762 545.649 522.131 545.607C522.445 545.571 522.768 545.585 523.412 545.614L524.979 545.684C525.412 545.703 525.629 545.713 525.813 545.738C527.653 545.992 529.076 547.48 529.248 549.33C529.265 549.515 529.265 549.732 529.265 550.165C529.265 550.519 529.265 550.696 529.278 550.854C529.402 552.421 530.434 553.77 531.913 554.302C532.063 554.355 532.233 554.402 532.575 554.495L548.583 558.847L563.383 561.423C564.06 561.541 564.398 561.6 564.74 561.601C565.082 561.601 565.421 561.544 566.098 561.428L576.632 559.634C577.879 559.422 578.502 559.315 579.055 559.029C579.607 558.744 580.054 558.296 580.948 557.401L584.635 553.71C585.566 552.778 586.032 552.312 586.61 552.022C587.188 551.731 587.84 551.636 589.144 551.447L594.583 550.656C597.621 550.214 599.14 549.993 600.098 548.968C601.057 547.942 601.174 546.412 601.408 543.351L601.639 540.336C601.8 538.243 601.88 537.196 602.421 536.349C602.962 535.503 603.879 534.99 605.711 533.966L608.594 532.353C609.66 531.757 610.193 531.459 610.609 531.024C611.024 530.589 611.297 530.043 611.844 528.951L614.161 524.319C614.731 523.182 615.016 522.613 615.453 522.165C615.891 521.718 616.453 521.421 617.578 520.826L618.768 520.198C620.014 519.539 620.637 519.21 621.104 518.702C621.571 518.193 621.846 517.545 622.396 516.247L623.936 512.614C624.535 511.202 624.835 510.496 625.357 509.959C625.879 509.422 626.576 509.102 627.971 508.464L633.579 505.896L639.311 502.836C639.864 502.541 640.141 502.393 640.357 502.238C641.816 501.189 642.397 499.295 641.776 497.608C641.685 497.359 641.538 497.082 641.246 496.527C641.057 496.169 640.963 495.991 640.892 495.817C640.416 494.664 640.505 493.355 641.133 492.277C641.227 492.115 641.345 491.95 641.581 491.622L644.376 487.717C644.772 487.165 644.97 486.888 645.117 486.585C645.265 486.281 645.361 485.954 645.551 485.302L647.253 479.477C647.254 479.473 647.254 479.472 647.255 479.47C647.494 478.646 647.463 477.767 647.165 476.962C647.164 476.96 647.163 476.959 647.162 476.955L646.246 474.49C645.408 472.235 642.308 472.008 641.151 474.117Z" fill="#F2F2F2"/>
<path fill-rule="evenodd" clip-rule="evenodd" d="M765.85 598.648C765.925 597.827 765.962 597.416 765.916 597.01C765.869 596.603 765.741 596.211 765.483 595.427L762.451 586.197L761.012 578.821C760.938 578.44 760.901 578.249 760.846 578.063C760.79 577.878 760.717 577.698 760.571 577.338L758.583 572.45C758.391 571.978 758.295 571.742 758.17 571.52C758.045 571.299 757.893 571.095 757.589 570.686L754.756 566.882C753.917 565.756 753.498 565.193 753.295 564.535C753.092 563.878 753.121 563.176 753.179 561.773L753.706 549.035C753.736 548.317 753.751 547.958 753.702 547.604C753.653 547.25 753.542 546.908 753.319 546.225L752.189 542.756C751.743 541.387 750.554 540.393 749.128 540.195C746.949 539.894 744.977 541.519 744.857 543.715L744.775 545.208C744.763 545.424 744.757 545.532 744.757 545.64C744.756 546.001 744.805 546.36 744.901 546.709C744.93 546.812 744.964 546.915 745.033 547.12L746.47 551.412C746.872 552.611 747.072 553.211 747.084 553.825C747.087 554.029 747.076 554.233 747.048 554.434C746.966 555.043 746.697 555.616 746.159 556.76C745.532 558.095 745.218 558.762 744.714 559.261C744.547 559.426 744.366 559.576 744.174 559.709C743.59 560.112 742.876 560.297 741.449 560.667L738.978 561.307C737.266 561.751 736.409 561.973 735.748 562.495C735.582 562.627 735.427 562.771 735.284 562.927C734.714 563.547 734.428 564.384 733.858 566.059C733.325 567.624 733.059 568.406 732.537 569.002C732.406 569.152 732.263 569.292 732.111 569.421C731.507 569.932 730.72 570.186 729.146 570.692L724.154 572.297C723.182 572.61 722.696 572.766 722.268 573.036C721.841 573.305 721.49 573.676 720.789 574.418L714.759 580.799C714.05 581.549 713.696 581.924 713.45 582.371C713.204 582.818 713.076 583.318 712.821 584.317L710.774 592.348C710.711 592.593 710.68 592.715 710.658 592.83C710.415 594.089 710.79 595.388 711.667 596.324C711.747 596.41 711.839 596.497 712.021 596.67L712.769 597.379C713.34 597.921 713.614 598.704 713.506 599.483C713.398 600.263 712.92 600.942 712.223 601.308L712.106 601.369C711.042 601.927 710.476 603.122 710.718 604.299L711.159 606.446C711.366 607.455 711.47 607.96 711.672 608.39C712.075 609.248 712.769 609.935 713.631 610.328C714.063 610.525 714.568 610.624 715.58 610.821L717.387 611.173C717.979 611.288 718.529 611.559 718.982 611.957C720.303 613.12 720.517 615.099 719.475 616.517L716.912 620.006C716.839 620.106 716.802 620.156 716.768 620.205C716.286 620.904 716.039 621.738 716.063 622.586C716.065 622.647 716.068 622.709 716.075 622.833C716.095 623.175 716.105 623.347 716.124 623.488C716.393 625.558 718.209 627.073 720.294 626.967C720.436 626.96 720.622 626.937 720.994 626.891C721.521 626.827 721.784 626.794 721.981 626.79C724.197 626.737 726.033 628.496 726.076 630.712C726.079 630.909 726.06 631.155 726.021 631.648L725.847 633.833C725.783 634.633 725.418 635.379 724.825 635.92C723.252 637.353 723.515 639.899 725.348 640.98L728.005 642.548C728.777 643.004 729.163 643.232 729.466 643.506C730.289 644.254 730.765 645.31 730.778 646.423C730.782 646.831 730.697 647.271 730.526 648.151C730.398 648.806 730.335 649.133 730.324 649.449C730.294 650.305 730.541 651.148 731.027 651.854C731.206 652.115 731.436 652.356 731.895 652.839L731.947 652.893C732.277 653.24 732.442 653.414 732.622 653.564C733.038 653.908 733.518 654.165 734.035 654.32C734.26 654.387 734.496 654.428 734.968 654.51L746.326 656.493C746.909 656.594 747.2 656.645 747.472 656.734C748.052 656.924 748.581 657.243 749.018 657.669C749.224 657.868 749.404 658.103 749.765 658.571L749.994 658.868C750.372 659.359 750.561 659.605 750.765 659.804C751.622 660.638 752.808 661.046 753.997 660.914C754.28 660.882 754.58 660.805 755.18 660.65C755.751 660.503 756.036 660.429 756.289 660.325C757.349 659.89 758.172 659.022 758.549 657.94C758.639 657.682 758.697 657.393 758.813 656.815L759.8 651.911L762.987 642.049C763.168 641.49 763.258 641.21 763.307 640.922C763.355 640.633 763.361 640.339 763.373 639.751L763.473 634.804C763.494 633.794 763.504 633.29 763.391 632.803C763.278 632.316 763.046 631.868 762.583 630.971L761.724 629.308C761.296 628.479 761.082 628.064 760.969 627.616C760.856 627.167 760.848 626.701 760.833 625.768L760.718 618.733C760.701 617.702 760.693 617.187 760.812 616.691C760.932 616.196 761.175 615.741 761.661 614.832L764.172 610.131C764.553 609.418 764.744 609.062 764.859 608.677C764.974 608.292 765.01 607.89 765.084 607.085L765.85 598.648Z" fill="#F2F2F2"/>
<path fill-rule="evenodd" clip-rule="evenodd" d="M3.00991 173.244C1.34772 173.244 0 174.62 0 176.326C0 178.032 1.34772 179.423 3.00991 179.423C4.6721 179.423 6.00485 178.047 6.00485 176.326C6.00485 174.605 4.65713 173.244 3.00991 173.244Z" fill="#F2F2F2"/>
<path fill-rule="evenodd" clip-rule="evenodd" d="M90.6449 260.956C89.7633 260.252 88.5886 260.034 87.513 260.374C86.0268 260.845 85.0547 262.27 85.159 263.826L85.1662 263.933C85.2835 265.682 86.6694 267.078 88.4172 267.208L90.8218 267.387C92.963 267.546 94.4201 265.258 93.3698 263.385C93.1999 263.082 92.973 262.815 92.7016 262.598L90.6449 260.956Z" fill="#F2F2F2"/>
<path fill-rule="evenodd" clip-rule="evenodd" d="M85.0312 253.311C84.5088 252.789 83.7735 252.539 83.0414 252.635L79.7969 253.061C79.7706 253.064 79.7442 253.055 79.7254 253.037C79.6691 252.981 79.5733 253.025 79.58 253.104L79.7231 254.809C79.7431 255.048 79.8816 255.26 80.0917 255.375L82.792 256.847C83.5288 257.249 84.4346 257.17 85.0904 256.646C86.0622 255.87 86.1429 254.422 85.2632 253.543L85.0312 253.311Z" fill="#F2F2F2"/>
<path fill-rule="evenodd" clip-rule="evenodd" d="M96.407 258.662C96.3316 258.662 96.2917 258.751 96.3419 258.808L101.879 265.021C102.21 265.393 102.711 265.565 103.2 265.474C104.248 265.281 104.721 264.047 104.069 263.203L101.587 259.992C100.768 258.932 99.461 258.367 98.1269 258.496L96.407 258.662Z" fill="#F2F2F2"/>
<path fill-rule="evenodd" clip-rule="evenodd" d="M128.979 286.963C128.784 287.013 128.715 287.255 128.855 287.4C128.895 287.442 128.921 287.496 128.927 287.553L129.22 290.169C129.39 291.691 130.464 292.96 131.937 293.379L132.262 293.472C134.357 294.068 136.48 292.622 136.693 290.454C136.795 289.414 136.425 288.383 135.686 287.644L134.723 286.682C134.132 286.091 133.272 285.857 132.463 286.065L128.979 286.963Z" fill="#F2F2F2"/>
<path fill-rule="evenodd" clip-rule="evenodd" d="M125.15 307.458C123.791 307.6 122.851 308.883 123.127 310.221C123.343 311.273 124.256 312.037 125.329 312.065L126.458 312.095C128.352 312.145 129.545 310.073 128.551 308.46C128.07 307.68 127.184 307.245 126.273 307.34L125.15 307.458Z" fill="#F2F2F2"/>
<path fill-rule="evenodd" clip-rule="evenodd" d="M136.846 131.186C136.977 131.882 137.346 132.51 137.891 132.963L141.991 136.374C142.515 136.81 142.776 137.028 143.057 137.193C143.732 137.59 144.509 137.78 145.291 137.74C145.616 137.723 145.948 137.651 146.614 137.506L147.541 137.305C148.209 137.16 148.544 137.088 148.802 136.993C150.727 136.288 151.807 134.241 151.303 132.254C151.236 131.987 151.107 131.67 150.85 131.037C150.79 130.889 150.76 130.815 150.727 130.743C150.495 130.231 150.158 129.773 149.737 129.4C149.678 129.348 149.616 129.297 149.493 129.196L145.155 125.645C144.922 125.454 144.805 125.358 144.692 125.278C143.543 124.463 142.049 124.313 140.76 124.883C140.633 124.939 140.5 125.009 140.233 125.15L136.66 127.037C136.453 127.147 136.373 127.403 136.482 127.611L136.622 127.877C136.685 127.997 136.615 128.144 136.482 128.17C136.373 128.191 136.301 128.296 136.322 128.405L136.846 131.186Z" fill="#F2F2F2"/>
<path fill-rule="evenodd" clip-rule="evenodd" d="M124.934 118.085C125.002 118.087 125.036 118.088 125.068 118.088C126.38 118.107 127.618 117.482 128.38 116.414C128.399 116.388 128.418 116.36 128.457 116.305C128.541 116.183 128.583 116.122 128.614 116.073C129.975 113.976 129.099 111.159 126.79 110.202C126.737 110.179 126.668 110.153 126.529 110.101L123.317 108.877L118.4 107.371C118.335 107.351 118.266 107.385 118.242 107.448C118.223 107.497 118.175 107.53 118.122 107.53H118.082C117.979 107.53 117.896 107.614 117.896 107.717V113.901C117.896 113.952 117.896 113.977 117.896 114.001C117.912 115.375 118.633 116.644 119.804 117.363C119.824 117.375 119.846 117.388 119.889 117.414C119.909 117.426 119.919 117.432 119.929 117.438C120.502 117.776 121.151 117.966 121.816 117.99C121.827 117.99 121.839 117.99 121.863 117.991L124.934 118.085Z" fill="#F2F2F2"/>
<path fill-rule="evenodd" clip-rule="evenodd" d="M144.899 94.5272C144.835 93.8762 144.338 93.3511 143.692 93.2511L142.589 93.0806C142.415 93.0537 142.253 93.1727 142.226 93.3462L142.192 93.5653C142.188 93.5942 142.163 93.6155 142.134 93.6155C142.103 93.6155 142.078 93.6388 142.075 93.6693L141.539 99.4971C141.425 100.736 142.494 101.758 143.726 101.589C144.755 101.448 145.488 100.518 145.387 99.4848L144.899 94.5272Z" fill="#F2F2F2"/>
<path fill-rule="evenodd" clip-rule="evenodd" d="M118.285 128.402C119.348 128.402 120.217 127.535 120.217 126.472C120.217 125.41 119.348 124.542 118.285 124.542C117.222 124.542 116.338 125.395 116.338 126.472C116.338 127.55 117.207 128.402 118.285 128.402Z" fill="#F2F2F2"/>
<path fill-rule="evenodd" clip-rule="evenodd" d="M143.428 320.755C142.409 320.755 141.571 321.952 141.571 323.448C141.571 324.944 142.409 326.141 143.428 326.141C144.446 326.141 145.284 324.944 145.284 323.448C145.284 321.952 144.446 320.755 143.428 320.755Z" fill="#F2F2F2"/>
</svg>
